<svg width="20" height="20" viewBox="0 0 20 20" fill="none" xmlns="http://www.w3.org/2000/svg">
<g clip-path="url(#clip0_13005_313584)">
<path d="M10 0C4.48578 0 0 4.48578 0 10C0 15.5142 4.48578 20 10 20C15.5142 20 20 15.5142 20 10C20 4.48578 15.5142 0 10 0Z" fill="#2196F3"/>
<path d="M14.3753 10.8326H10.8336V14.3743C10.8336 14.8343 10.4603 15.2076 10.0003 15.2076C9.54023 15.2076 9.16699 14.8343 9.16699 14.3743V10.8326H5.62527C5.16523 10.8326 4.79199 10.4593 4.79199 9.9993C4.79199 9.53926 5.16523 9.16602 5.62527 9.16602H9.16699V5.6243C9.16699 5.16426 9.54023 4.79102 10.0003 4.79102C10.4603 4.79102 10.8336 5.16426 10.8336 5.6243V9.16602H14.3753C14.8353 9.16602 15.2086 9.53926 15.2086 9.9993C15.2086 10.4593 14.8353 10.8326 14.3753 10.8326Z" fill="#FAFAFA"/>
</g>
<defs>
<clipPath id="clip0_13005_313584">
<rect width="20" height="20" fill="white"/>
</clipPath>
</defs>
</svg>
