<svg width="150" height="109" viewBox="0 0 150 109" fill="none" xmlns="http://www.w3.org/2000/svg">
<g clip-path="url(#clip0_13341_39312)">
<path d="M143.528 108.243C134.066 108.243 6.14491 107.966 6.14491 107.951C6.09191 107.827 -10.094 87.9883 10.2875 67.2467C20.3866 56.967 1.01331 43.655 10.2875 32.2233C26.1739 12.6406 41.893 23.6675 54.9873 18.1617C57.3006 17.1893 59.6222 15.625 61.9469 13.2236C63.2412 11.8898 64.6755 10.6994 66.2248 9.67291C66.4598 9.51584 66.6975 9.36281 66.938 9.21383C67.8577 8.64375 68.8091 8.12658 69.7877 7.66484C70.447 7.35368 71.1187 7.06614 71.8028 6.80223C72.8961 6.3815 74.011 6.01917 75.1427 5.71678C76.7791 5.27985 78.4429 4.95327 80.123 4.73925C80.8637 4.64305 81.6105 4.56707 82.3635 4.5113C96.9946 3.41117 113.458 9.5982 121.958 18.6406C123.669 20.4616 131.449 29.8839 125.316 42.8338C121.444 51.0104 137.664 58.8199 143.428 68.1566C158.087 91.8933 143.662 107.933 143.528 108.243Z" fill="#EBF3FA"/>
<g opacity="0.8">
<path d="M110.422 53.0502C110.038 54.1063 109.561 55.1258 108.995 56.0965C106.795 59.8514 103.348 62.7164 99.2544 64.193C95.1606 65.6696 90.6787 65.6645 86.5883 64.1786C79.4531 61.585 74.8699 55.08 74.3815 47.9608C74.3163 47.0158 74.3242 46.0671 74.4051 45.1233C74.6617 42.1539 75.6236 39.2888 77.2107 36.766C77.2183 36.7526 77.226 36.7411 77.2343 36.7277C79.6814 32.8807 83.4535 30.064 87.8372 28.8104C88.2909 28.6801 88.7504 28.5673 89.2157 28.472C92.5798 27.7792 96.0703 28.0368 99.2963 29.2158C99.7411 29.3771 100.175 29.5538 100.599 29.7458C103.626 31.105 106.231 33.2551 108.138 35.9698C109.568 37.9998 110.58 40.2946 111.113 42.72C111.227 43.2397 111.319 43.765 111.389 44.2958C111.775 47.2493 111.443 50.2525 110.421 53.0502H110.422Z" fill="#D7E5FF"/>
<path d="M89.8487 36.7131C88.7498 37.5642 89.041 39.8417 87.1383 38.5577C85.2356 37.2737 84.0416 36.5784 83.5033 37.6964C82.9651 38.8144 84.6526 39.4299 84.2057 40.6507C83.7587 41.8715 82.8591 42.0005 81.9071 40.998C80.9551 39.9956 80.9276 39.0308 79.3857 39.0628C77.8437 39.0947 77.186 38.4607 77.2614 37.3031C77.2742 37.1227 77.2571 36.9415 77.2109 36.7667C77.2186 36.7533 77.2263 36.7418 77.2346 36.7284C79.6816 32.8814 83.4538 30.0646 87.8374 28.8111C88.2912 28.6808 88.7507 28.568 89.2159 28.4727C89.7536 28.691 90.3295 29.1341 90.6353 30.0236C91.3064 31.9793 92.395 31.5189 91.4705 33.1573C90.5459 34.7957 90.9265 35.2005 91.9353 35.498C92.9441 35.7956 94.1062 36.2214 93.9491 37.0196C93.792 37.8177 90.9475 35.862 89.8487 36.7131Z" fill="#AEC3FF"/>
<path d="M110.422 53.051C110.038 54.1071 109.561 55.1266 108.995 56.0973C107.683 58.3425 105.912 60.2858 103.798 61.8004C103.286 61.7913 102.795 61.5977 102.415 61.2551C100.552 59.5905 103.021 57.8225 104.321 56.9625C105.621 56.1024 103.207 55.817 101.99 54.141C100.773 52.4649 103.622 50.1931 101.792 50.0705C99.9612 49.948 97.7335 49.8292 97.3606 47.8677C96.9878 45.9063 98.9141 46.3098 98.5738 44.6574C98.2335 43.0049 99.8297 42.6953 101.534 43.1671C103.238 43.639 103.449 42.3818 105.561 42.9526C107.672 43.5234 106.679 46.1227 109.009 46.7727C111.339 47.4227 111.047 47.9086 111.047 47.9086C111.212 47.9639 111.361 48.0568 111.484 48.18C111.35 49.8439 110.992 51.4822 110.422 53.051Z" fill="#AEC3FF"/>
<path d="M111.391 44.296C109.172 44.5284 109.322 41.7586 107.439 41.9227C105.539 42.0881 106.353 40.7377 105.412 39.3426C104.471 37.9475 101.301 38.7041 101.945 37.293C102.589 35.8819 104.359 36.9859 105.189 35.9713C106.019 34.9567 107.773 35.9241 107.773 35.9241C107.897 35.9222 108.02 35.9377 108.139 35.97C109.569 38 110.581 40.2948 111.114 42.7202C111.228 43.24 111.321 43.7652 111.391 44.296Z" fill="#AEC3FF"/>
<path d="M97.3302 33.5093C97.3302 33.5093 98.8364 32.4423 97.4202 31.4514C96.0041 30.4604 95.8323 31.0217 94.6587 30.4477C93.4852 29.8737 92.6622 30.6443 93.203 32.0088C93.7438 33.3733 93.7648 35.6227 94.9767 34.8686C96.1886 34.1146 96.3195 33.2571 97.3302 33.5093Z" fill="#AEC3FF"/>
</g>
<path d="M10.3701 108.004H16.8566C17.204 107.71 16.6159 107.04 16.001 106.995C15.7341 106.975 15.397 107.031 15.0114 107.112C14.922 105.927 14.4118 100.596 12.4906 100.811C10.3305 101.05 12.4906 103.158 13.1016 104.406C13.5537 105.33 14.0313 106.655 14.2509 107.279C14.076 107.317 13.894 107.354 13.7088 107.388C13.4221 106.509 12.3571 103.552 11.0022 103.724C9.41174 103.926 10.0509 105.111 11.1785 105.816C12.0053 106.333 13.0212 107.068 13.5039 107.424C13.085 107.497 12.6603 107.531 12.2352 107.525C11.1229 107.501 10.5802 107.829 10.3701 108.004Z" fill="#A8D29F"/>
<path d="M113.609 108.004H107.583C107.264 107.731 107.807 107.11 108.377 107.067C108.626 107.048 108.939 107.1 109.297 107.175C109.38 106.074 109.854 101.124 111.638 101.322C113.644 101.545 111.638 103.503 111.071 104.662C110.65 105.52 110.207 106.751 110.005 107.332C110.168 107.367 110.336 107.402 110.509 107.433C110.775 106.617 111.764 103.87 113.022 104.03C114.5 104.218 113.906 105.319 112.859 105.972C112.093 106.453 111.147 107.136 110.699 107.466C111.088 107.534 111.483 107.566 111.878 107.561C112.909 107.537 113.413 107.841 113.609 108.004Z" fill="#A8D29F"/>
<path d="M117.912 68.5074C117.912 68.5074 118.055 67.081 117.31 67.1301C116.564 67.1793 116.366 67.5209 116.449 67.7955C116.533 68.07 117.258 68.976 117.258 68.976L117.912 68.5074Z" fill="#FFB27D"/>
<path d="M129.533 71.3656C129.533 71.3656 128.708 72.3355 126.932 73.4554C126.763 73.5614 126.588 73.6687 126.402 73.7747C125.619 74.2289 124.807 74.6286 123.969 74.9712C123.866 75.0134 123.746 75.06 123.61 75.1091C122.546 75.4922 120.588 76.0381 119.375 76.0867C119.269 76.0911 119.169 76.0911 119.076 76.0867C117.229 76.0126 117.004 68.8448 117.004 68.8448C117.004 68.8448 117.209 68.1278 118.158 68.3085C118.158 68.3085 119.599 72.3559 120.116 72.686C120.574 72.9791 123.211 68.9828 125.479 68.7037C127.007 68.5192 129.533 71.3656 129.533 71.3656Z" fill="#739AF0"/>
<path d="M124.571 106.318C124.571 106.318 124.707 107.896 124.374 108.06L120.105 108.051C120.105 108.051 120.105 107.558 120.791 107.449C121.477 107.339 122.681 106.938 122.885 106.044C123.089 105.15 124.571 106.318 124.571 106.318Z" fill="#1C3154"/>
<path d="M121.442 87.2219C121.463 88.2537 121.513 89.3181 121.61 90.2745C122.071 94.813 122.232 100.299 122.299 101.354C122.413 103.189 122.776 106.121 122.776 106.121C122.776 106.121 123.495 106.803 124.897 106.477C124.897 106.477 126.058 102.255 126.317 97.8082C126.322 97.7354 126.326 97.6619 126.329 97.5885C126.359 97.0011 126.393 96.3288 126.423 95.6041C126.636 90.7515 126.87 83.5365 126.87 83.5365L121.514 82.2793C121.514 82.2793 121.386 84.65 121.442 87.2219Z" fill="#2A4E96"/>
<path d="M121.442 87.2219C122.799 89.5639 125.386 93.8789 126.422 95.6041C126.635 90.7515 126.869 83.5365 126.869 83.5365L121.513 82.2793C121.513 82.2793 121.386 84.65 121.442 87.2219Z" fill="#233862"/>
<path d="M123.613 75.1107C122.548 75.4938 120.591 76.0397 119.377 76.0882C119.563 76.0538 120.914 75.7862 121.414 75.1828C121.95 74.5341 122.854 72.7732 123.573 73.4915C123.909 73.8305 123.809 74.499 123.613 75.1107Z" fill="#6385DB"/>
<path d="M132.612 86.4613C132.612 86.4613 132.944 87.7651 132.889 88.0576C132.835 88.35 132.51 89.3282 132.308 89.5721C132.105 89.816 132.097 88.5135 131.963 88.3091C131.829 88.1048 131.899 88.795 131.793 88.8519C131.687 88.9087 131.505 88.3289 131.425 88.1233C131.346 87.9177 131.713 87.2026 131.745 86.6899C131.777 86.1772 132.612 86.4613 132.612 86.4613Z" fill="#FFB27D"/>
<path d="M135.206 104.525C135.206 104.525 135.965 105.219 135.817 105.712C135.669 106.205 134.983 106.532 134.891 107.134C134.798 107.736 134.427 108.065 134.094 108.065H132.503C132.503 108.065 132.258 107.641 132.851 107.514C133.443 107.386 133.667 106.678 133.63 106.021C133.593 105.364 133.686 104.489 133.686 104.489L134.946 104.197L135.206 104.525Z" fill="#1C3154"/>
<path d="M122.354 83.6457C122.354 83.6457 127.367 94.3725 130.035 99.0814C132.704 103.79 133.537 105.102 133.537 105.102C133.537 105.102 135.066 104.5 135.205 104.089C135.205 104.089 134.184 95.002 132.396 92.7877C131.386 91.5363 130.2 87.78 130.144 86.4666C130.089 85.1532 128.918 82.0176 128.918 82.0176L122.354 83.6457Z" fill="#2A4E96"/>
<path d="M121.42 83.0892C121.42 83.0892 123.052 84.8463 125.825 85.3769C127.042 85.6099 129.514 85.8353 130.127 84.9682C130.271 84.7646 130.272 84.4632 130.241 83.9933C130.158 82.7699 129.85 80.4062 131.239 75.6551C131.362 75.2396 131.451 74.8149 131.506 74.3852C131.809 71.9544 131.776 70.12 129.667 69.1399C126.508 67.6714 125.211 68.8794 125.211 68.8794C125.211 68.8794 123.531 69.6648 122.762 71.9531C121.229 76.5305 121.42 83.0892 121.42 83.0892Z" fill="#739AF0"/>
<path d="M127.773 68.7355C127.428 68.9683 127.028 69.1053 126.612 69.1324C126.197 69.1596 125.782 69.0759 125.41 68.89C125.342 68.8555 125.35 68.3837 125.368 67.9201C125.385 67.4566 125.428 67.0186 125.428 67.0186L126.552 66.2805L127.625 65.5781C127.498 67.9974 128.013 68.5637 127.773 68.7355Z" fill="#FFB27D"/>
<path d="M127.437 66.5774C127.437 66.5774 126.708 67.6725 125.369 67.9183C125.386 67.463 125.433 66.9605 125.433 66.9605L126.552 66.2773L127.437 66.5774Z" fill="#ED985F"/>
<path d="M124.422 66.7353C124.422 66.7353 127.142 67.7499 127.747 66.0745C128.352 64.3991 129.111 63.4005 127.4 62.6815C125.688 61.9626 125.118 62.4817 124.778 62.9918C124.438 63.502 123.729 66.4276 124.422 66.7353Z" fill="#FFB27D"/>
<path d="M129.443 62.8685C129.474 62.8448 129.537 62.8327 129.669 62.8512C129.603 62.7938 129.524 62.7535 129.438 62.7337C129.447 62.5467 129.414 62.2051 129.119 62.0646C129.164 62.1044 129.199 62.1537 129.223 62.2089C129.246 62.2642 129.256 62.3239 129.254 62.3838C128.964 61.9369 128.24 61.5142 126.052 61.2588C123.169 60.9217 123.745 62.9246 124.073 63.2139C124.4 63.5031 125.44 63.0919 126.116 63.2816C126.792 63.4712 126.725 64.4864 126.93 64.6677C127.136 64.8491 127.092 64.5918 127.434 64.5113C127.776 64.4309 127.703 64.9583 127.546 65.2775C127.388 65.5968 127.732 66.1305 127.732 66.1305L128.261 65.7474C128.79 65.3643 129.595 63.454 129.48 62.9904C129.462 62.9521 129.453 62.9106 129.443 62.8685Z" fill="#2C3A64"/>
<path d="M130.242 83.993C130.159 82.7696 129.852 80.4059 131.24 75.6548C131.363 75.2393 131.452 74.8146 131.507 74.3849C130.476 74.0445 128.596 74.8012 128.596 74.8012C128.596 74.8012 128.153 81.0814 130.242 83.993Z" fill="#6385DB"/>
<path d="M130.238 69.457C130.238 69.457 131.508 69.9187 132.318 73.2803C132.853 75.501 133.838 78.7657 133.949 79.793C134.06 80.8203 132.823 86.8248 132.823 86.8248C132.823 86.8248 132.649 86.9525 132.221 86.8663C131.984 86.8233 131.771 86.6958 131.621 86.5074C131.621 86.5074 131.326 82.5047 131.402 80.6148C131.433 79.8294 127.767 74.8638 125.788 74.224C125.01 73.9712 130.238 69.457 130.238 69.457Z" fill="#739AF0"/>
<path d="M112.479 65.1059C112.479 65.1059 116.148 65.0019 120.382 65.7815L120.825 64.6667L121.31 63.4452C121.31 63.4452 117.059 61.6146 114.503 59.0664L112.479 65.1059Z" fill="#AEC3FF"/>
<path d="M114.561 59.0057L112.454 65.2246C112.381 65.2032 112.313 65.167 112.255 65.1184C112.196 65.0698 112.148 65.0097 112.114 64.9418C112.079 64.874 112.059 64.7998 112.054 64.7238C112.049 64.6478 112.06 64.5717 112.085 64.5L113.937 59.2745C113.958 59.2146 113.992 59.1598 114.035 59.1134C114.078 59.067 114.131 59.03 114.189 59.0048C114.247 58.9796 114.31 58.9666 114.374 58.9668C114.437 58.9669 114.5 58.9802 114.558 59.0057H114.561Z" fill="#F99746"/>
<path d="M116.573 69.7334C116.77 69.7724 116.975 69.7316 117.143 69.62C117.31 69.5084 117.427 69.335 117.467 69.1377L118.192 65.5079C118.231 65.3104 118.19 65.1056 118.079 64.9382C117.967 64.7707 117.794 64.6542 117.597 64.614C117.399 64.5751 117.194 64.6159 117.026 64.7277C116.859 64.8394 116.743 65.013 116.703 65.2103L115.977 68.8396C115.938 69.037 115.979 69.2419 116.091 69.4094C116.202 69.5769 116.376 69.6934 116.573 69.7334Z" fill="#F99746"/>
<path d="M112.479 65.1062C112.479 65.1062 116.148 65.0021 120.382 65.7817L120.825 64.6669C116.844 63.8541 112.479 65.1062 112.479 65.1062Z" fill="#739AF0"/>
<path d="M119.213 65.5561L120.362 65.7578C120.345 65.7578 121.427 65.9679 121.782 65.0089C121.815 64.9432 121.838 64.8734 121.851 64.8014C122.126 63.6055 121.467 63.3852 121.467 63.3852L119.992 62.8105L119.523 64.4706V64.4764L119.213 65.5561Z" fill="#F99746"/>
<path d="M119.213 65.5574L120.362 65.7592C120.345 65.7592 121.427 65.9693 121.782 65.0102C121.133 64.5384 119.525 64.4707 119.525 64.4707V64.4764L119.213 65.5574Z" fill="#ED7D2B"/>
<path d="M116.671 66.2215C116.671 66.2215 117.233 66.445 117.13 66.6921C117.027 66.9392 116.314 67.2789 116.201 67.0841C116.088 66.8894 116.319 66.0121 116.671 66.2215Z" fill="#FFB27D"/>
<path d="M117.923 68.2834C117.975 68.0066 118.013 67.7271 118.035 67.4463C118.042 67.1826 118.073 66.9674 118.011 66.9598C117.949 66.9521 117.903 67.0006 117.878 67.0875C117.854 67.1743 117.756 67.6979 117.756 67.6979L117.805 68.2087L117.923 68.2834Z" fill="#FFB27D"/>
<path d="M62.4444 67.9083L59.2666 105.695C59.2666 105.695 58.9333 107.985 60.6368 107.989C63.4385 107.996 74.5803 107.989 74.5803 107.989C74.5803 107.989 72.4733 107.512 72.4975 106.44C72.5275 105.175 76.2116 67.5508 76.2116 67.5508L62.4444 67.9083Z" fill="#7599EA"/>
<path d="M75.6276 107.319C75.0765 107.319 64.2898 107.339 61.5615 107.304C60.3726 107.289 60.1645 106.246 60.1568 105.572C60.1534 105.384 60.1656 105.196 60.1932 105.01L60.2756 104.028L60.4863 101.524L60.6721 99.313L60.9115 96.471L61.1126 94.0722L63.371 67.2222L77.1389 66.8652C77.1389 66.8652 75.5867 82.6105 74.4891 94.0722C74.3665 95.3492 74.2503 96.5738 74.1424 97.7167C74.1071 98.082 74.0735 98.4384 74.0415 98.7862C73.9394 99.8717 73.8462 100.866 73.7657 101.746C73.7229 102.209 73.6833 102.64 73.6476 103.034C73.5078 104.579 73.426 105.566 73.4248 105.754C73.4235 105.857 73.4325 105.959 73.4516 106.06C73.675 107.264 75.4207 107.319 75.6276 107.319Z" fill="#90AFF4"/>
<path d="M29.0059 47.3457L36.7463 78.4392L37.8063 82.698L41.4118 97.1803H108.393L95.1043 47.3457H29.0059Z" fill="#AEC3FF"/>
<path d="M29.0069 47.3457L27.9336 47.7033L39.9865 98.2619L41.4129 97.1803L29.0069 47.3457Z" fill="#90AFF4"/>
<path d="M39.9863 98.2632H106.555L108.394 97.1816H41.4127L39.9863 98.2632Z" fill="#7599EA"/>
<path d="M63.362 108.004H77.7754V107.319H63.362V108.004Z" fill="#AEC3FF"/>
<path d="M74.1118 98.2617L74.0377 98.7859L60.4824 101.524L60.6682 99.3127L60.757 98.2617H74.1118Z" fill="#5888DD"/>
<path opacity="0.4" d="M75.627 107.318C75.076 107.318 64.2892 107.338 61.5609 107.303C60.3721 107.288 60.1639 106.245 60.1562 105.571L73.647 103.033C73.5072 104.578 73.4255 105.565 73.4242 105.753C73.4229 105.856 73.4319 105.958 73.451 106.059C73.6745 107.263 75.4201 107.318 75.627 107.318Z" fill="#5888DD"/>
<path d="M29.0059 47.3457H95.1043L105.829 87.3967H38.9766L29.0059 47.3457Z" fill="#AEC3FF"/>
<path d="M102.712 85.6624H40.8229L38.6118 76.8524L37.7562 73.4435L37.407 72.0534L35.1339 62.9996L35.0164 62.5277L33.8148 57.7422L33.2772 55.6007L32.8187 53.7739L31.7441 49.4922H92.7403L93.9209 53.7739L94.424 55.6007L95.0146 57.7422L98.9037 71.8491V71.8498L99.2332 73.045L99.3864 73.5999L102.071 83.3395L102.712 85.6624Z" fill="#739AF0"/>
<path d="M93.9209 53.7746H32.8187L31.7441 49.4922H92.7403L93.9209 53.7746Z" fill="#607CF4"/>
<path d="M34.2666 51.4276C34.1926 51.132 34.3726 50.8926 34.6683 50.8926C34.8219 50.9001 34.9692 50.9559 35.0893 51.0519C35.2095 51.148 35.2963 51.2794 35.3374 51.4276C35.4108 51.7233 35.2308 51.9627 34.9352 51.9627C34.7816 51.9552 34.6343 51.8995 34.5143 51.8034C34.3942 51.7073 34.3076 51.5758 34.2666 51.4276Z" fill="#E9F3FE"/>
<path d="M36.0459 51.4276C35.9719 51.132 36.1519 50.8926 36.4476 50.8926C36.6012 50.9001 36.7485 50.9559 36.8686 51.0519C36.9888 51.148 37.0756 51.2794 37.1167 51.4276C37.1901 51.7233 37.0101 51.9627 36.7145 51.9627C36.5609 51.9552 36.4136 51.8995 36.2936 51.8034C36.1735 51.7073 36.0869 51.5758 36.0459 51.4276Z" fill="#E9F3FE"/>
<path d="M37.9617 51.4276C37.8883 51.132 38.0683 50.8926 38.364 50.8926C38.5175 50.9001 38.6648 50.9558 38.7848 51.0519C38.9049 51.148 38.9915 51.2794 39.0325 51.4276C39.1065 51.7233 38.9265 51.9627 38.6309 51.9627C38.4772 51.9552 38.3299 51.8994 38.2098 51.8033C38.0897 51.7073 38.0029 51.5758 37.9617 51.4276Z" fill="#E9F3FE"/>
<path d="M80.6072 24.596C83.1082 21.6589 86.966 15.7599 89.5627 12.7385C89.6823 12.5993 89.7593 12.4286 89.7846 12.2469C89.8099 12.0652 89.7825 11.88 89.7056 11.7134C89.6288 11.5468 89.5056 11.4058 89.3509 11.3071C89.1962 11.2085 89.0164 11.1564 88.8329 11.1569H84.1081L88.5648 1.07765C88.7563 0.647299 88.1689 0.304427 87.8867 0.681778L77.1089 15.1067C77.0389 15.2003 76.998 15.3125 76.9912 15.4292C76.9845 15.5459 77.0122 15.6621 77.0709 15.7632C77.1296 15.8642 77.2167 15.9459 77.3215 15.9978C77.4262 16.0498 77.5439 16.0699 77.6599 16.0555L83.0099 15.3966L79.827 24.1395C79.652 24.6216 80.2752 24.9861 80.6072 24.596Z" fill="#F77D48"/>
<path d="M58.3584 42.4857C58.9215 39.599 59.2765 34.2382 59.871 31.2603C59.8984 31.1231 59.8858 30.981 59.8347 30.8508C59.7836 30.7206 59.6962 30.6078 59.5829 30.5258C59.4695 30.4439 59.335 30.3963 59.1953 30.3886C59.0557 30.3809 58.9168 30.4135 58.7951 30.4826L55.6563 32.2499L54.8466 23.8895C54.8122 23.5326 54.2943 23.5236 54.2484 23.8799L52.4842 37.4894C52.4728 37.5778 52.4876 37.6676 52.5268 37.7476C52.566 37.8276 52.6278 37.8943 52.7046 37.9395C52.7814 37.9847 52.8698 38.0063 52.9588 38.0016C53.0477 37.997 53.1334 37.9663 53.2051 37.9134L56.5118 35.475L57.6682 42.4729C57.7326 42.8598 58.283 42.8688 58.3584 42.4857Z" fill="#AEC3FF"/>
<path d="M105.416 86.5151L51.6401 91.0484C47.5537 91.3926 44.6019 87.2296 46.2767 83.4886L69.0595 32.5002C70.7879 28.6316 76.1008 28.184 78.4524 31.7085L109.442 78.1617C111.716 81.5725 109.499 86.1709 105.416 86.5151Z" fill="#E6EFFF"/>
<path d="M105.588 88.5487L51.8108 93.082C50.5244 93.1903 49.2319 92.9613 48.061 92.4175C46.8901 91.8737 45.8812 91.0341 45.1339 89.9813C44.3867 88.9286 43.9268 87.6992 43.7997 86.4145C43.6727 85.1297 43.8828 83.8341 44.4094 82.6554L67.1928 31.6663C68.3121 29.1609 70.6133 27.5276 73.3473 27.2971C76.0813 27.0666 78.6238 28.2925 80.1466 30.5751L111.14 77.0328C111.856 78.1069 112.28 79.3494 112.37 80.6375C112.46 81.9256 112.212 83.2149 111.651 84.3779C111.09 85.541 110.236 86.5376 109.172 87.2695C108.108 88.0014 106.872 88.4432 105.585 88.5512L105.588 88.5487ZM73.6902 31.363C73.0935 31.4089 72.5205 31.6161 72.0325 31.9625C71.5445 32.3089 71.1598 32.7814 70.9197 33.3296L48.1369 84.318C47.8998 84.8486 47.8051 85.4318 47.8622 86.0101C47.9194 86.5885 48.1264 87.1419 48.4628 87.6158C48.7992 88.0896 49.2534 88.4676 49.7805 88.7122C50.3077 88.9569 50.8895 89.0599 51.4686 89.011L105.245 84.4776C105.824 84.4289 106.38 84.23 106.859 83.9005C107.337 83.5711 107.722 83.1225 107.974 82.5991C108.226 82.0757 108.338 81.4955 108.298 80.9158C108.257 80.3361 108.066 79.777 107.744 79.2937L76.7479 32.838C76.4199 32.338 75.962 31.9366 75.4234 31.6768C74.8848 31.417 74.2857 31.3085 73.6902 31.363Z" fill="#F77D48"/>
<path d="M72.4295 78.7141C72.3669 78.0556 72.4381 77.3912 72.6389 76.7609C72.8298 76.1641 73.1431 75.6136 73.559 75.1449C73.9919 74.6632 74.5174 74.2736 75.1042 73.9994C75.718 73.7044 76.4231 73.5233 77.2195 73.4561C77.9555 73.3842 78.6983 73.4452 79.4127 73.6361C80.0428 73.8055 80.6317 74.1014 81.1437 74.5057C81.6318 74.8985 82.0328 75.3887 82.3211 75.9449C82.624 76.5329 82.8053 77.1759 82.8542 77.8355C82.9167 78.4888 82.845 79.1481 82.6435 79.7727C82.4493 80.3638 82.1357 80.9086 81.7222 81.3734C81.2855 81.8588 80.7543 82.2499 80.161 82.5227C79.4888 82.8307 78.7667 83.0152 78.0291 83.0673C77.2331 83.1346 76.5076 83.0739 75.8525 82.8854C75.2281 82.7133 74.6448 82.4171 74.1375 82.0145C73.652 81.6257 73.2517 81.1413 72.9614 80.5913C72.6575 80.0085 72.4764 79.3696 72.4295 78.7141ZM80.7434 68.9853L72.9971 69.6379L69.6699 43.2635L79.6107 42.4258L80.7434 68.9853Z" fill="#F77D48"/>
<path d="M39.0371 70.6014C39.0371 70.6014 39.2063 70.2221 39.3155 70.0427C39.4247 69.8633 39.8901 69.3404 39.9706 69.456C40.051 69.5715 40.3677 70.3767 40.1985 70.6014C40.0293 70.8262 40.2094 71.2163 39.3685 71.4532L39.0371 70.6014Z" fill="#FFB27D"/>
<path d="M29.709 68.207C29.709 68.207 34.0054 71.7928 35.6808 71.4634C36.9904 71.2041 39.0617 70.5471 39.0617 70.5471C39.0617 70.5471 39.6082 71.0669 39.4537 71.69C39.4537 71.69 36.8148 74.1725 34.9351 74.1891C31.998 74.214 30.6112 72.7327 30.6112 72.7327L29.709 68.207Z" fill="#ED7D2B"/>
<path d="M22.1758 106.035C22.1758 106.035 22.3035 108.047 22.6898 108.078C22.7415 108.082 24.664 108.082 24.664 108.082L27.1184 108.068C27.1184 108.068 27.1024 107.477 26.3847 107.351C25.6671 107.226 24.4693 106.722 24.0325 105.774C23.5754 104.774 22.1758 106.035 22.1758 106.035Z" fill="#113C68"/>
<path d="M22.0332 106.174C22.0332 106.174 22.779 106.424 23.3613 106.424C23.7807 106.418 24.1977 106.359 24.6019 106.247C24.6019 106.247 24.7424 104.888 25.515 101.896C25.9204 100.327 26.4989 98.3104 27.3225 95.8043C29.5988 88.8779 30.2909 84.826 30.3541 84.4422C30.3541 84.4218 30.3586 84.4116 30.3586 84.4116L30.3516 84.4084L23.353 81.3359C23.353 81.3359 24.2182 90.8821 23.1142 94.5458C22.9468 95.1228 22.8131 95.7091 22.7139 96.3017C22.0173 100.281 22.0332 106.174 22.0332 106.174Z" fill="#2A4E96"/>
<path d="M25.5165 101.896C25.9219 100.327 26.5004 98.3104 27.3241 95.8043C29.6003 88.8779 30.2924 84.826 30.3556 84.4422C30.3556 84.4307 30.3556 84.4199 30.3556 84.4084L23.3571 81.3359C23.3571 81.3359 24.2222 90.8821 23.1183 94.5458C22.9612 95.0579 25.5165 101.896 25.5165 101.896Z" fill="#233862"/>
<path d="M27.6406 106.035C27.6406 106.035 27.7651 108.047 28.1514 108.078C28.2031 108.082 30.1257 108.082 30.1257 108.082L32.58 108.068C32.58 108.068 32.5634 107.477 31.8464 107.351C31.1294 107.226 29.9309 106.722 29.4935 105.774C29.0396 104.774 27.6406 106.035 27.6406 106.035Z" fill="#15447C"/>
<path d="M31.6084 81.5605C31.6084 81.5605 31.6997 87.7463 30.6289 95.3418C29.5582 102.937 29.9215 106.161 29.9215 106.161C29.9215 106.161 29.1865 106.399 28.8896 106.424C28.1337 106.487 27.3573 106.246 27.3573 106.246C27.3573 106.246 25.8249 98.648 26.2642 94.8464C26.7034 91.0448 24.168 81.7993 24.168 81.7993L31.6084 81.5605Z" fill="#2A4E96"/>
<path d="M26.6465 67.0851L28.0129 67.979L29.2573 67.6272C29.4846 67.3028 29.5446 66.6771 29.5485 66.135C29.5498 65.8032 29.5334 65.4715 29.4993 65.1415L27.6559 64.328L26.9683 64.0254C26.9683 64.0362 27.0219 64.5898 27.0321 64.6709C27.1579 66.1088 26.6465 67.0851 26.6465 67.0851Z" fill="#FFB27D"/>
<path d="M31.6401 83.2808C29.9398 84.923 23.505 84.6465 23.1085 82.8376C22.712 81.0288 23.5408 67.4403 26.4453 66.5866C27.048 66.4098 30.2705 67.4512 30.2705 67.4512C30.626 68.4305 30.9058 69.4357 31.1076 70.4578C31.1715 70.7854 31.3598 74.2582 31.5003 77.5068C31.5641 79.0258 31.6216 80.4969 31.6497 81.5741C31.6759 82.5822 31.6771 83.245 31.6401 83.2808Z" fill="#F99746"/>
<path d="M27.1678 64.6987C27.5413 65.3308 28.8534 65.8837 29.5487 66.1372C29.5501 65.8054 29.5337 65.4738 29.4996 65.1437L27.6562 64.3303C27.2489 64.3252 27.0011 64.4165 27.1678 64.6987Z" fill="#FCA56B"/>
<path d="M30.1943 65.0321C30.1943 65.0321 27.2247 65.9586 26.6762 64.0999C26.1277 62.2412 25.3749 61.1098 27.2477 60.44C29.1204 59.7703 29.7001 60.3698 30.0341 60.9457C30.368 61.5217 30.9529 64.7429 30.1943 65.0321Z" fill="#FFB27D"/>
<path d="M29.9182 60.7657C29.9182 60.7657 29.7266 62.9282 29.2797 62.8344C28.8327 62.7405 28.3404 62.5394 28.4062 63.1913C28.472 63.8432 27.9714 64.9606 27.3265 64.958C25.9435 64.9523 24.4405 61.4035 24.8191 60.7305C25.9135 58.7889 31.4972 58.3968 29.9182 60.7657Z" fill="#163560"/>
<path d="M29.4807 66.6325C29.4424 66.6165 27.2702 65.6422 27.0161 65.7258C26.762 65.8094 26.4453 66.5858 26.4453 66.5858L30.2705 67.4504C30.2705 67.4504 29.9692 66.8387 29.4807 66.6325Z" fill="#ED7D2B"/>
<path d="M43.0057 77.1569L30.8283 88.6217C30.5895 88.8465 30.2881 88.918 30.1591 88.7813L29.7479 88.3446C29.6202 88.2073 29.7083 87.9111 29.9471 87.6863L42.1245 76.2208C42.3633 75.9967 42.6647 75.9246 42.7937 76.0618L43.2049 76.4986C43.3339 76.6359 43.2445 76.9321 43.0057 77.1569Z" fill="#1F4D84"/>
<path d="M36.1718 83.5923L30.8283 88.623C30.5895 88.8477 30.2881 88.9193 30.1591 88.7826L29.7479 88.3459C29.6202 88.2086 29.7083 87.9123 29.9471 87.6876L35.2907 82.6562L36.1718 83.5923Z" fill="#739AF0"/>
<path d="M40.2058 72.8287C40.6299 74.2193 41.366 75.4946 42.358 76.5573C43.35 77.6201 44.5717 78.4422 45.9297 78.9609C47.2878 79.4796 48.7465 79.6813 50.1943 79.5505C51.6422 79.4196 53.0411 78.9598 54.2842 78.2061C55.5273 77.4523 56.5819 76.4246 57.3673 75.2013C58.1528 73.978 58.6484 72.5914 58.8164 71.1473C58.9844 69.7033 58.8203 68.24 58.3367 66.869C57.8531 65.498 57.0627 64.2556 56.0258 63.2366C55.9773 63.1881 55.9268 63.1396 55.8764 63.0923C54.3437 61.6507 52.3776 60.756 50.2839 60.5471C48.1902 60.3383 46.0861 60.8271 44.2989 61.9376C42.5117 63.048 41.1414 64.7178 40.4012 66.6875C39.661 68.6571 39.5923 70.8161 40.2058 72.8287ZM42.9341 64.0175C44.1256 62.7509 45.666 61.866 47.3604 61.4749C49.0548 61.0837 50.8271 61.2038 52.4533 61.82C54.0794 62.4362 55.4864 63.5207 56.4961 64.9365C57.5058 66.3523 58.0731 68.0358 58.126 69.7739C58.179 71.5121 57.7153 73.2269 56.7936 74.7016C55.8719 76.1762 54.5337 77.3444 52.948 78.0584C51.3624 78.7725 49.6007 79.0002 47.8856 78.713C46.1705 78.4257 44.5791 77.6363 43.3127 76.4446C42.471 75.6542 41.7934 74.7056 41.3187 73.653C40.844 72.6005 40.5816 71.4646 40.5464 70.3105C40.5113 69.1564 40.7041 68.0067 41.1138 66.9272C41.5235 65.8477 42.142 64.8596 42.9341 64.0194V64.0175Z" fill="#1F4D84"/>
<g opacity="0.5">
<path d="M55.7413 76.0679C54.5498 77.3346 53.0094 78.2195 51.315 78.6108C49.6205 79.002 47.8481 78.882 46.2219 78.2658C44.5957 77.6497 43.1888 76.5651 42.179 75.1493C41.1692 73.7335 40.602 72.05 40.549 70.3118C40.496 68.5736 40.9597 66.8587 41.8814 65.3841C42.8032 63.9094 44.1415 62.7412 45.7272 62.0272C47.3128 61.3132 49.0746 61.0855 50.7897 61.3728C52.5049 61.6601 54.0962 62.4497 55.3626 63.6415C56.2074 64.4301 56.8877 65.3782 57.3643 66.4311C57.841 67.4839 58.1045 68.6207 58.1397 69.7758C58.1749 70.931 57.9811 72.0817 57.5694 73.1616C57.1578 74.2415 56.5364 75.2293 55.7413 76.0679Z" fill="#B3CFF9"/>
</g>
<path d="M31.6496 81.5737C24.9396 76.792 25.4977 70.4121 25.4977 70.4121C27.9501 71.7951 30.3841 74.8535 31.4995 77.5064C31.5659 79.0254 31.6215 80.4965 31.6496 81.5737Z" fill="#ED7D2B"/>
<path d="M38.272 79.3965C38.7451 79.2873 39.0631 78.9298 39.1288 78.8672C39.1288 78.8672 39.3306 78.8812 39.0963 79.3141C39.0765 79.3499 39.0324 79.4418 38.9999 79.5057C38.9968 79.5119 38.9953 79.5187 38.9955 79.5256C38.9957 79.5325 38.9977 79.5392 39.0012 79.5452C39.0046 79.5512 39.0096 79.5562 39.0155 79.5597C39.0214 79.5633 39.0281 79.5654 39.035 79.5657C39.3083 79.5861 39.5822 79.4782 40.1083 79.588C40.1811 79.6034 40.2021 79.7796 40.1996 79.8511C40.21 80.0161 40.1596 80.1792 40.0579 80.3095C39.9736 80.4213 39.7386 80.5413 39.2099 80.7533C39.0094 80.8344 38.4361 80.7731 37.8985 80.5886L37.4688 80.3894L37.6016 79.5912L37.7101 79.6136C37.8812 79.65 38.0932 79.438 38.272 79.3965Z" fill="#FFB27D"/>
<path d="M27.5838 67.4512C27.5838 67.4512 21.5545 68.6005 29.3575 77.33C30.6051 78.7264 37.3477 80.5448 37.3477 80.5448C37.3477 80.5448 38.0315 79.9625 37.6867 79.4913C37.6867 79.4913 33.0442 76.1207 32.0226 75.585C31.5635 75.3436 30.2393 70.2044 29.4903 68.9663C28.7414 67.7283 27.5838 67.4512 27.5838 67.4512Z" fill="#F99746"/>
<path d="M39.1992 70.7084C39.1992 70.7084 39.3965 70.3317 39.4355 70.1338C39.4744 69.9358 39.7221 69.3555 39.8243 69.2533C39.8652 69.2124 40.0005 69.2654 40.0159 69.441C40.0085 69.5738 39.9756 69.7039 39.9188 69.8241C39.8109 70.0942 39.8288 70.4626 39.7911 70.582C39.6985 70.8821 39.1992 70.7084 39.1992 70.7084Z" fill="#FFB27D"/>
<path d="M41.5999 55.7503C41.553 55.8021 41.522 55.8663 41.5107 55.9353C41.4993 56.0043 41.5081 56.075 41.536 56.1391C41.6299 56.3984 41.9396 56.6882 42.3022 56.9775C42.3482 57.0145 42.3891 57.0483 42.4248 57.0796L42.4523 57.1045L42.4733 57.1231C42.8092 57.4327 42.6828 57.5061 43.2855 58.1319C43.9732 58.8476 44.4469 58.861 44.5817 58.7959C44.6953 58.7404 44.4642 58.3605 44.2075 57.9339C44.1954 57.9135 44.1832 57.8924 44.1705 57.8701C44.136 57.8133 44.1021 57.7558 44.0683 57.6983C43.7676 57.1875 43.8448 56.9443 43.9163 56.18C43.9744 55.5594 44.8837 52.7117 44.8837 52.7117L43.5658 52.4844C43.5658 52.4844 43.168 54.7517 42.7307 55.1022C42.497 55.288 42.2352 55.2938 42.0104 55.4285C41.9945 55.4381 41.9785 55.4476 41.9632 55.4579C41.8296 55.5387 41.7074 55.637 41.5999 55.7503Z" fill="#FFB27D"/>
<path d="M41.5999 55.7488C41.553 55.8006 41.522 55.8649 41.5107 55.9338C41.4993 56.0028 41.5081 56.0736 41.536 56.1377C41.651 56.3969 41.953 56.6849 42.3022 56.9735C42.3476 57.0111 42.3878 57.0456 42.4235 57.0782L42.451 57.1031L42.4721 57.1216C42.8079 57.4313 42.6815 57.5047 43.2842 58.1304C43.9719 58.8462 44.4457 58.8596 44.5804 58.7945C44.694 58.7389 44.4629 58.359 44.2062 57.9325C43.7253 57.7443 43.3024 57.4327 42.9803 57.029C42.5819 56.5182 42.3112 55.8701 42.0398 55.4717L41.9619 55.457C41.8288 55.5378 41.707 55.6359 41.5999 55.7488Z" fill="#233862"/>
<path d="M52.2293 54.9292C52.3104 55.3366 52.8901 55.2689 53.5382 55.1106C54.1863 54.9522 54.0318 55.1406 54.9544 55.0391C55.877 54.9375 56.1561 54.5921 56.1841 54.4561C56.209 54.3348 55.7538 54.2914 55.2647 54.2352L55.0802 54.2128C54.5285 54.1432 54.1224 53.7876 53.6231 53.4945C53.1487 53.2174 52.4406 52.0898 52.4406 52.0898L51.1758 52.1894C51.1758 52.1894 51.8392 53.1976 52.0959 53.6356C52.2465 53.891 52.2382 54.2346 52.2197 54.4976C52.2032 54.6413 52.2064 54.7865 52.2293 54.9292Z" fill="#FFB27D"/>
<path d="M53.536 55.1117C54.184 54.954 54.0295 55.1417 54.9521 55.0402C55.8748 54.9387 56.1538 54.5932 56.1819 54.4572C56.2068 54.3359 55.7515 54.2925 55.2625 54.2363L55.258 54.2459C54.8628 54.4991 54.4066 54.6407 53.9376 54.6558C53.3118 54.6705 52.6491 54.4911 52.2175 54.4981C52.2009 54.642 52.2041 54.7874 52.227 54.9304C52.3081 55.3377 52.8879 55.2701 53.536 55.1117Z" fill="#233862"/>
<path d="M47.3841 46.8432L46.201 50.0235L44.6558 54.1738C44.3803 54.1941 44.1033 54.1689 43.836 54.099C43.4669 53.9918 43.043 53.716 43.043 53.716C43.043 53.716 43.4733 49.2561 44.2734 46.6963C44.4789 46.0393 44.7088 45.5081 44.9623 45.2086C46.2016 43.7465 47.3841 46.8432 47.3841 46.8432Z" fill="#233862"/>
<path d="M46.1835 41.7895C45.5106 41.5718 43.7573 41.7851 41.8507 42.1292C41.5935 42.1755 41.3283 42.1426 41.0902 42.035C40.852 41.9274 40.6521 41.7501 40.5169 41.5265L35.7243 41.1504C35.7243 41.1504 34.1415 44.657 35.0067 46.8924C35.1344 47.2206 35.4127 47.4255 35.8437 47.4326C35.8437 47.4326 38.7399 47.4377 39.6664 47.4383C42.0499 47.4383 44.7105 45.8012 45.0553 45.7329C45.6191 45.6205 45.8439 46.7474 46.407 47.9306C46.9702 49.1137 51.7008 53.172 51.7008 53.172C51.7008 53.172 52.4287 53.1797 52.7288 53.0666C53.0518 52.946 53.1706 52.7883 53.1706 52.7883C53.1706 52.7883 47.9298 42.3533 46.1835 41.7895Z" fill="#2A4E96"/>
<path d="M40.0134 27.4526C39.7368 27.2881 39.4194 27.2053 39.0978 27.2138C38.95 27.218 38.8021 27.209 38.6559 27.187C36.8266 26.9182 35.7246 29.575 35.6595 30.3795C35.5407 31.8538 34.7605 32.0779 33.6629 33.0005C31.4613 34.8521 32.1062 37.0019 33.3092 37.8013C34.0313 38.2809 35.3038 37.8013 35.3038 37.8013C35.3217 37.8135 38.7849 35.8667 40.4916 34.9281C43.0507 34.5635 41.0413 28.0649 40.0134 27.4526Z" fill="#233862"/>
<path d="M39.0598 34.1256C39.0674 34.1308 38.2201 34.4194 37.6551 34.1684C37.1219 33.9328 36.7184 33.0555 36.7267 33.0549C36.9693 33.044 37.2375 32.8321 37.4405 31.4414L37.544 31.4784L39.2794 32.1035C39.2794 32.1035 39.1517 32.6609 39.0719 33.189C39.0023 33.6359 38.9653 34.0624 39.0598 34.1256Z" fill="#FFB27D"/>
<path d="M39.2784 32.1036C39.2784 32.1036 39.2094 32.4043 39.1079 32.9656C38.1112 32.7855 37.6834 32.0174 37.543 31.4785L39.2784 32.1036Z" fill="#ED975D"/>
<path d="M39.5368 32.6563C39.5368 32.6563 37.1616 32.337 37.3838 30.8608C37.606 29.3846 37.4477 28.3503 38.9737 28.4914C40.4997 28.6325 40.7091 29.2403 40.7544 29.7511C40.7998 30.2619 40.1606 32.6991 39.5368 32.6563Z" fill="#FFB27D"/>
<path d="M40.6731 28.9434C40.6731 28.9434 39.1522 30.253 38.1191 30.3583C37.086 30.4637 36.6934 30.1317 36.6934 30.1317C37.1063 29.7626 37.4388 29.3125 37.6703 28.8093C37.7229 28.6909 37.8062 28.5887 37.9116 28.5134C38.0171 28.4381 38.1407 28.3923 38.2698 28.3809C39.0047 28.317 40.4043 28.2883 40.6731 28.9434Z" fill="#233862"/>
<path d="M39.7188 28.8251C39.7188 28.8251 40.2295 29.3167 40.3873 29.6819C40.5418 30.0338 40.5877 30.8753 40.4645 31.2099C40.4645 31.2099 41.2575 29.6692 40.8093 28.9202C40.3336 28.1266 39.7188 28.8251 39.7188 28.8251Z" fill="#233862"/>
<path d="M41.0601 37.6257C40.9866 42.433 41.0396 41.4286 40.5135 41.8845C40.3858 41.9943 40.0302 42.0594 39.5615 42.0907C38.0872 42.1878 35.4962 41.9439 35.3979 41.6719C35.0582 40.7288 35.2983 40.4364 35.0148 38.9902C34.9854 38.837 34.9509 38.6709 34.9063 38.4896C34.67 37.4987 34.4395 37.1615 35.2798 35.5691C36.0409 34.1274 36.832 32.9564 36.9028 32.9992C38.9103 34.1913 39.0737 33.1907 39.0737 33.1907C39.0737 33.1907 41.0965 35.2812 41.0601 37.6257Z" fill="#F99746"/>
<path d="M46.201 50.0225L44.6558 54.1727C44.3803 54.1931 44.1033 54.1679 43.836 54.098C43.4669 53.9908 43.043 53.7149 43.043 53.7149C43.043 53.7149 43.4733 49.255 44.2734 46.6953L46.201 50.0225Z" fill="#2A4E96"/>
<path d="M39.0723 33.1914C39.0723 33.1914 41.1384 33.5426 41.3804 34.432C41.6224 35.3214 42.4193 40.7206 42.4193 40.7206C42.4193 40.7206 41.837 41.2895 41.3517 40.8042C40.8664 40.3189 39.8263 35.7518 39.8263 35.7518L39.0723 33.1914Z" fill="#F99746"/>
<path d="M39.5604 42.0905C38.0861 42.1876 35.4951 41.9437 35.3968 41.6717C35.0571 40.7286 35.2972 40.4362 35.0137 38.99L35.7256 36.9883C35.7256 36.9883 35.6075 39.2179 36.2645 39.8047C36.9215 40.3915 38.9564 40.9374 39.2756 41.4271C39.4144 41.6267 39.5113 41.8524 39.5604 42.0905Z" fill="#ED7D2B"/>
<path d="M37.8711 41.1508C37.8711 41.1508 39.3256 40.8277 39.5606 40.9592C39.7955 41.0908 40.3683 41.5588 40.4398 41.7222C40.5113 41.8857 39.9175 41.5977 39.7246 41.546C39.5969 41.5122 39.2694 41.6265 39.1066 41.6814C38.4202 41.9099 37.9994 41.7918 37.9994 41.7918L37.8711 41.1508Z" fill="#FFB27D"/>
<path d="M36.901 33C36.901 33 34.9485 33.1194 34.2723 34.0625C33.3203 35.3893 31.4304 41.0444 32.512 41.7991C33.7302 42.6496 38.0548 42.022 38.0548 42.022C38.0548 42.022 38.1991 41.3496 37.9992 41.024C37.7994 40.6983 34.5431 40.1703 34.3956 40.0222C34.2481 39.874 36.2747 37.0928 36.2747 36.642C36.2747 36.1912 36.901 33 36.901 33Z" fill="#F99746"/>
<path d="M39.6309 41.3613C39.6309 41.3613 39.9354 41.7546 40.035 41.8013C40.0854 41.8287 40.1426 41.8411 40.1998 41.837L39.9942 41.4673L39.6309 41.3613Z" fill="#FFB27D"/>
<path d="M39.5605 40.957L40.4461 41.3874C40.4288 41.4089 40.4061 41.4255 40.3803 41.4354C40.3545 41.4454 40.3266 41.4484 40.2993 41.4442C40.1686 41.4211 40.0403 41.3858 39.9162 41.3389L39.5605 40.957Z" fill="#FFB27D"/>
<path d="M47.1255 41.9719L37.8711 41.9688V42.1731L47.0431 42.1763L47.1255 41.9719Z" fill="#233862"/>
<path d="M40.0352 42.1731L47.0433 42.1756L49.1529 36.9342L42.1556 36.9316L40.0352 42.1731Z" fill="#233862"/>
<path d="M45.2752 39.5546C45.3276 39.3701 45.2216 39.2207 45.0371 39.2207C44.94 39.2261 44.8468 39.2609 44.7701 39.3206C44.6933 39.3802 44.6365 39.4619 44.6073 39.5546C44.5544 39.7385 44.661 39.8879 44.8455 39.8879C44.9425 39.8824 45.0354 39.8476 45.1122 39.7881C45.1889 39.7286 45.2458 39.6472 45.2752 39.5546Z" fill="white"/>
<path d="M92.7041 61.943C91.7597 61.6295 91.1078 62.0254 91.1078 62.0254C88.3891 62.1371 88.2882 64.9235 88.6075 65.9605C89.0544 67.4162 87.4697 68.5649 89.2287 69.1529C91.2719 69.8368 92.9818 69.0252 92.8682 69.3777C99.3163 69.8866 94.8513 62.6556 92.7041 61.943Z" fill="#163560"/>
<path d="M89.8842 75.4933C89.6766 75.8815 89.4333 76.2495 89.1576 76.5928C88.5932 77.2996 85.6293 75.621 85.8847 75.4933C86.1401 75.3656 87.6291 71.0755 87.9834 70.536C88.3378 69.9965 89.5471 69.7168 89.5471 69.7168L89.8842 75.4933Z" fill="#F99746"/>
<path d="M99.8851 104.432C99.8851 104.432 100.703 105.178 100.543 105.709C100.384 106.239 99.6457 106.593 99.5461 107.241C99.4465 107.89 99.0474 108.243 98.6879 108.243H96.9761C96.9761 108.243 96.7118 107.787 97.3503 107.649C97.9888 107.512 98.2295 106.75 98.1893 106.043C98.149 105.336 98.2493 104.392 98.2493 104.392L99.6061 104.078L99.8851 104.432Z" fill="#1F447F"/>
<path d="M92.9657 104.748C92.9657 104.748 93.2601 107.911 92.9019 108.087L88.3047 108.078C88.3047 108.078 88.3047 107.548 89.0428 107.43C89.7809 107.312 91.0783 106.88 91.2973 105.917C91.5163 104.954 92.9657 104.748 92.9657 104.748Z" fill="#1C3154"/>
<path d="M96.4988 73.3599C96.5398 74.0674 96.5398 74.7767 96.4988 75.4842C96.4534 76.2504 95.6764 77.2815 95.5659 77.5357C95.2895 78.1742 94.9779 78.2776 94.9779 78.2776L92.5644 78.8695L91.7158 79.077L89.0405 78.2776C89.0405 78.2776 87.8216 74.8763 88.3113 72.9615C88.8011 71.0466 89.5481 69.7166 89.5481 69.7166C89.5481 69.7166 91.3665 69.308 94.5744 69.5359L96.4988 73.3599Z" fill="#F99746"/>
<path d="M96.7286 75.5119C96.6833 76.2781 95.6764 77.2824 95.5659 77.5365C95.2895 78.175 94.9779 78.2785 94.9779 78.2785L92.5644 78.8703L92.1289 77.6215C92.1289 77.6215 95.6547 76.695 95.0877 73.4316L96.7286 75.5119Z" fill="#ED7D2B"/>
<path d="M89.2087 78.7955C89.2087 78.7955 87.8838 82.9196 87.7989 84.3243C87.714 85.729 90.3318 104.272 90.4372 104.919C90.5361 105.529 91.2934 105.918 91.2934 105.918C91.5566 106.046 91.8592 106.069 92.1388 105.981C92.829 105.79 93.0467 105.554 93.0467 105.554C93.0467 105.554 94.0779 92.3284 93.44 87.6042C93.0513 84.6824 92.8355 81.7402 92.7939 78.793L89.2087 78.7955Z" fill="#233862"/>
<path d="M94.8242 78.6719C94.8242 78.6719 96.845 81.3842 97.0334 83.2173C97.2218 85.0504 97.329 91.4897 97.7306 93.2768C98.1323 95.064 99.6059 98.5036 99.6059 104.078C99.6059 104.078 99.4527 104.397 98.9789 104.567C98.7982 104.628 98.6142 104.679 98.4279 104.72C98.2381 104.763 98.0393 104.741 97.8635 104.658C97.6877 104.574 97.5451 104.434 97.4586 104.26C96.4619 102.252 93.2854 95.7765 93.1226 94.4325C93.007 93.4812 92.0046 87.1856 89.8165 83.4919C89.2916 82.605 90.1357 79.078 90.1357 79.078L94.8242 78.6719Z" fill="#2A4E96"/>
<path d="M88.9991 78.1602C88.9991 78.1602 89.5309 78.5809 90.5876 78.602C91.8499 78.6275 94.9773 78.2828 94.9773 78.2828C95.0635 78.5401 95.1085 78.8095 95.1107 79.0809C95.1107 79.0809 91.2906 80.0444 89.0776 79.222C89.0776 79.2169 88.7922 78.6799 88.9991 78.1602Z" fill="#233862"/>
<path d="M90.2836 79.6886C89.9644 79.6886 89.709 79.3961 89.709 79.0367C89.709 78.6772 89.9644 78.3848 90.2836 78.3848C90.6029 78.3848 90.8583 78.6772 90.8583 79.0367C90.8583 79.3961 90.6029 79.6886 90.2836 79.6886ZM90.2836 78.5757C90.071 78.5757 89.9005 78.7825 89.9005 79.0367C89.9005 79.2908 90.0729 79.4977 90.2836 79.4977C90.4943 79.4977 90.6667 79.2908 90.6667 79.0367C90.6667 78.7825 90.4963 78.5757 90.2836 78.5757Z" fill="white"/>
<path d="M93.0433 80.8741L87.3019 80.9277L84.4766 74.288L90.2179 74.2344L93.0433 80.8741Z" fill="#B5453C"/>
<path d="M92.2919 77.8729L91.8712 77.3558C91.8712 77.3558 91.5864 77.1004 91.3795 77.0582C91.1727 77.0161 90.7366 76.7639 90.6944 76.8347C90.6523 76.9056 91.0296 77.4094 91.0296 77.4094H91.0488C90.6153 77.7357 89.5209 77.4477 89.3887 77.5805C89.2252 77.7421 89.6141 78.0913 89.8229 78.2829C90.0317 78.4744 90.6287 78.8051 91.0941 78.6602C91.4344 78.5542 91.9695 78.4463 91.9695 78.4463L92.2919 77.8729Z" fill="#FFB27D"/>
<path d="M84.9076 75.4563C84.9076 75.4563 85.269 75.0458 85.4983 75.2431C85.7275 75.4404 85.4382 76.4071 85.2199 76.3087C85.0015 76.2104 84.7825 75.5764 84.9076 75.4563Z" fill="#FFB27D"/>
<path d="M94.5736 69.5371C94.5736 69.5371 96.2171 69.7178 97.3964 71.8612C98.3267 73.5513 99.9165 76.6666 99.3163 77.5438C99.0533 77.9301 96.5287 79.3048 91.6582 78.5195C91.6582 78.5195 91.7348 77.904 92.1281 77.6192C92.1281 77.6192 96.226 76.3033 96.2196 76.0415C96.2062 75.5466 95.6654 75.1188 93.3764 72.8286C92.7539 72.2086 94.5736 69.5371 94.5736 69.5371Z" fill="#F99746"/>
<path d="M93.3086 69.6238C93.3648 69.5478 93.292 69.3046 93.202 68.8576C93.1203 68.4503 92.9817 67.8201 92.9843 67.1113L92.8636 67.1318L90.8262 67.474C90.8262 67.474 90.8728 68.0186 90.8741 68.532V68.5448C90.8741 68.9917 90.754 69.664 90.9041 69.7515C91.676 70.2036 93.0928 69.915 93.3086 69.6238Z" fill="#FFB27D"/>
<path d="M90.8262 67.4731C90.8262 67.4731 90.867 68.2393 90.8683 68.7546C92.008 68.7271 92.6165 67.6199 92.8636 67.1309L90.8262 67.4731Z" fill="#E8945B"/>
<path d="M90.7032 68.3909C90.7032 68.3909 93.3734 68.0078 93.111 66.3477C92.8486 64.6876 93.0165 63.5217 91.3002 63.6947C89.5839 63.8678 89.3541 64.5529 89.3068 65.1282C89.2596 65.7035 90.0015 68.4445 90.7032 68.3909Z" fill="#FFB27D"/>
<path d="M90.0801 63.8497C90.0801 63.8497 91.1196 65.6796 92.2842 65.7895C93.4488 65.8993 93.8868 65.5213 93.8868 65.5213C93.2574 65.1244 92.7857 64.5211 92.5523 63.8146C92.5523 63.8146 90.483 62.8377 90.0801 63.8497Z" fill="#163560"/>
<path d="M90.2873 63.978C90.2873 63.978 89.7765 64.2666 89.6188 64.6964C89.4231 65.1997 89.3822 65.7499 89.5013 66.2766C89.5013 66.2766 88.7415 65.0411 89.2395 64.1945C89.7676 63.2968 90.2873 63.978 90.2873 63.978Z" fill="#163560"/>
<path d="M149.12 108.004H1.09532C0.993057 108.004 0.910156 108.087 0.910156 108.189V108.296C0.910156 108.398 0.993057 108.481 1.09532 108.481H149.12C149.223 108.481 149.306 108.398 149.306 108.296V108.189C149.306 108.087 149.223 108.004 149.12 108.004Z" fill="#233862"/>
</g>
<defs>
<clipPath id="clip0_13341_39312">
<rect width="150" height="107.961" fill="white" transform="translate(0 0.519531)"/>
</clipPath>
</defs>
</svg>
