<svg width="38" height="37" viewBox="0 0 38 37" fill="none" xmlns="http://www.w3.org/2000/svg">
<g filter="url(#filter0_d_12396_286357)">
<path d="M4 18.5C4 10.4919 10.4919 4 18.5 4H19.5C27.5081 4 34 10.4919 34 18.5C34 26.5081 27.5081 33 19.5 33H18.5C10.4919 33 4 26.5081 4 18.5Z" fill="white" shape-rendering="crispEdges"/>
<path d="M24.2734 12.7578H22.0762V12.3184C22.0762 11.5914 21.4848 11 20.7578 11H17.2422C16.5152 11 15.9238 11.5914 15.9238 12.3184V12.7578H13.7266C12.9996 12.7578 12.4082 13.3492 12.4082 14.0762C12.4082 14.66 12.7898 15.1561 13.3166 15.3289L14.1004 24.7911C14.1568 25.469 14.7339 26 15.4142 26H22.5858C23.2661 26 23.8432 25.469 23.8997 24.7909L24.6834 15.3289C25.2102 15.1561 25.5918 14.66 25.5918 14.0762C25.5918 13.3492 25.0004 12.7578 24.2734 12.7578ZM16.8027 12.3184C16.8027 12.076 16.9999 11.8789 17.2422 11.8789H20.7578C21.0001 11.8789 21.1973 12.076 21.1973 12.3184V12.7578H16.8027V12.3184ZM23.0238 24.7181C23.0049 24.9441 22.8126 25.1211 22.5858 25.1211H15.4142C15.1875 25.1211 14.9951 24.9441 14.9763 24.7183L14.2039 15.3945H23.7961L23.0238 24.7181ZM24.2734 14.5156H13.7266C13.4842 14.5156 13.2871 14.3185 13.2871 14.0762C13.2871 13.8339 13.4842 13.6367 13.7266 13.6367H24.2734C24.5158 13.6367 24.7129 13.8339 24.7129 14.0762C24.7129 14.3185 24.5158 14.5156 24.2734 14.5156Z" fill="#F1556C"/>
<path d="M17.2414 23.7756L16.8019 16.6857C16.7869 16.4435 16.5772 16.2592 16.3361 16.2743C16.0939 16.2893 15.9097 16.4979 15.9247 16.7401L16.3641 23.83C16.3786 24.063 16.5721 24.2422 16.8023 24.2422C17.0568 24.2422 17.257 24.0279 17.2414 23.7756ZM19 16.2735C18.7573 16.2735 18.5606 16.4702 18.5606 16.7129V23.8028C18.5606 24.0455 18.7573 24.2422 19 24.2422C19.2427 24.2422 19.4395 24.0455 19.4395 23.8028V16.7129C19.4395 16.4702 19.2427 16.2735 19 16.2735ZM21.6639 16.2743C21.4222 16.2593 21.2131 16.4435 21.1981 16.6857L20.7587 23.7756C20.7437 24.0178 20.9279 24.2264 21.1701 24.2414C21.4125 24.2564 21.6209 24.0721 21.6359 23.83L22.0754 16.7401C22.0904 16.4979 21.9062 16.2893 21.6639 16.2743Z" fill="#F1556C"/>
</g>
<defs>
<filter id="filter0_d_12396_286357" x="0" y="0" width="38" height="37" filterUnits="userSpaceOnUse" color-interpolation-filters="sRGB">
<feFlood flood-opacity="0" result="BackgroundImageFix"/>
<feColorMatrix in="SourceAlpha" type="matrix" values="0 0 0 0 0 0 0 0 0 0 0 0 0 0 0 0 0 0 127 0" result="hardAlpha"/>
<feOffset/>
<feGaussianBlur stdDeviation="2"/>
<feComposite in2="hardAlpha" operator="out"/>
<feColorMatrix type="matrix" values="0 0 0 0 0 0 0 0 0 0 0 0 0 0 0 0 0 0 0.1 0"/>
<feBlend mode="normal" in2="BackgroundImageFix" result="effect1_dropShadow_12396_286357"/>
<feBlend mode="normal" in="SourceGraphic" in2="effect1_dropShadow_12396_286357" result="shape"/>
</filter>
</defs>
</svg>
