<svg width="38" height="37" viewBox="0 0 38 37" fill="none" xmlns="http://www.w3.org/2000/svg">
<g filter="url(#filter0_d_12396_286352)">
<path d="M4 18.5C4 10.4919 10.4919 4 18.5 4H19.5C27.5081 4 34 10.4919 34 18.5C34 26.5081 27.5081 33 19.5 33H18.5C10.4919 33 4 26.5081 4 18.5Z" fill="white" shape-rendering="crispEdges"/>
<g clip-path="url(#clip0_12396_286352)">
<path d="M23.3755 18.5293C23.0298 18.5293 22.7505 18.8094 22.7505 19.1543V24.1546C22.7505 24.4989 22.4704 24.7795 22.1255 24.7795H13.3751C13.03 24.7795 12.7501 24.4989 12.7501 24.1546V15.4041C12.7501 15.0598 13.03 14.7791 13.3751 14.7791H18.3753C18.721 14.7791 19.0003 14.4991 19.0003 14.1542C19.0003 13.8091 18.721 13.5291 18.3753 13.5291H13.3751C12.3413 13.5291 11.5 14.3703 11.5 15.4041V24.1546C11.5 25.1884 12.3413 26.0296 13.3751 26.0296H22.1255C23.1593 26.0296 24.0006 25.1884 24.0006 24.1546V19.1543C24.0006 18.8087 23.7211 18.5293 23.3755 18.5293Z" fill="#34C759"/>
<path d="M17.3597 17.9597C17.3163 18.0034 17.2865 18.0588 17.2741 18.1191L16.8323 20.3293C16.8117 20.4317 16.8441 20.5373 16.9179 20.6117C16.947 20.6407 16.9815 20.6637 17.0194 20.6793C17.0574 20.695 17.0981 20.703 17.1392 20.7029C17.1591 20.7029 17.1798 20.7011 17.2004 20.6967L19.4099 20.2549C19.4711 20.2423 19.5267 20.213 19.5699 20.1691L24.5151 15.2239L22.3056 13.0145L17.3597 17.9597ZM26.0426 11.4864C25.4333 10.8769 24.442 10.8769 23.8331 11.4864L22.9681 12.3513L25.1776 14.5608L26.0426 13.6957C26.3377 13.4014 26.5002 13.0088 26.5002 12.5913C26.5002 12.1738 26.3377 11.7813 26.0426 11.4864Z" fill="#34C759"/>
</g>
</g>
<defs>
<filter id="filter0_d_12396_286352" x="0" y="0" width="38" height="37" filterUnits="userSpaceOnUse" color-interpolation-filters="sRGB">
<feFlood flood-opacity="0" result="BackgroundImageFix"/>
<feColorMatrix in="SourceAlpha" type="matrix" values="0 0 0 0 0 0 0 0 0 0 0 0 0 0 0 0 0 0 127 0" result="hardAlpha"/>
<feOffset/>
<feGaussianBlur stdDeviation="2"/>
<feComposite in2="hardAlpha" operator="out"/>
<feColorMatrix type="matrix" values="0 0 0 0 0 0 0 0 0 0 0 0 0 0 0 0 0 0 0.1 0"/>
<feBlend mode="normal" in2="BackgroundImageFix" result="effect1_dropShadow_12396_286352"/>
<feBlend mode="normal" in="SourceGraphic" in2="effect1_dropShadow_12396_286352" result="shape"/>
</filter>
<clipPath id="clip0_12396_286352">
<rect width="15" height="15" fill="white" transform="translate(11.5 11)"/>
</clipPath>
</defs>
</svg>
