<svg width="20" height="21" viewBox="0 0 20 21" fill="none" xmlns="http://www.w3.org/2000/svg">
<path d="M19.4833 6.61897C18.798 5.93358 17.6828 5.93362 16.9972 6.61913L15.2344 8.38343V3.74003C15.2344 3.2705 15.0515 2.82909 14.7195 2.4971L13.0623 0.839795C12.7303 0.507764 12.2888 0.324951 11.8193 0.324951H1.75781C0.788555 0.324951 0 1.11351 0 2.08276V18.5671C0 19.5364 0.788555 20.325 1.75781 20.325H13.4766C14.4458 20.325 15.2344 19.5364 15.2344 18.5671V13.3574L19.4833 9.10491C20.1703 8.41796 20.1704 7.30601 19.4833 6.61897ZM11.7188 1.49683C11.8295 1.49683 12.0428 1.47765 12.2336 1.66843L13.8909 3.32573C14.0768 3.51171 14.0625 3.7155 14.0625 3.84058H11.7188V1.49683ZM14.0625 18.5671C14.0625 18.8902 13.7997 19.1531 13.4766 19.1531H1.75781C1.43473 19.1531 1.17188 18.8902 1.17188 18.5671V2.08276C1.17188 1.75968 1.43473 1.49683 1.75781 1.49683H10.5469V4.42651C10.5469 4.75011 10.8092 5.01245 11.1328 5.01245H14.0625V9.55632L12.3337 11.2865L11.5055 12.1148C11.4412 12.1791 11.3927 12.2575 11.3639 12.3438L10.5353 14.8298C10.5008 14.933 10.4958 15.0438 10.5208 15.1497C10.5458 15.2556 10.5998 15.3525 10.6768 15.4294C10.7537 15.5064 10.8506 15.5604 10.9565 15.5854C11.0624 15.6104 11.1732 15.6054 11.2764 15.5709L13.7624 14.7423C13.8487 14.7135 13.9271 14.6651 13.9914 14.6007L14.0625 14.5296V18.5671ZM12.7484 12.5291L13.5771 13.3578L13.2605 13.6743L12.0176 14.0886L12.4319 12.8456L12.7484 12.5291ZM14.4055 12.5289L13.5769 11.7003L16.3935 8.88132L17.2221 9.70995L14.4055 12.5289ZM18.6545 8.27644L18.0505 8.88097L17.2218 8.05233L17.8261 7.44761C18.0546 7.21913 18.4263 7.21917 18.6547 7.44761C18.8831 7.67612 18.8843 8.04655 18.6545 8.27644Z" fill="#1C437F"/>
<path d="M11.1328 6.18433H2.92969C2.60609 6.18433 2.34375 6.44667 2.34375 6.77026C2.34375 7.09386 2.60609 7.3562 2.92969 7.3562H11.1328C11.4564 7.3562 11.7188 7.09386 11.7188 6.77026C11.7188 6.44667 11.4564 6.18433 11.1328 6.18433ZM8.78906 8.52808H2.92969C2.60609 8.52808 2.34375 8.79042 2.34375 9.11401C2.34375 9.43761 2.60609 9.69995 2.92969 9.69995H8.78906C9.11266 9.69995 9.375 9.43761 9.375 9.11401C9.375 8.79042 9.11266 8.52808 8.78906 8.52808ZM8.78906 10.8718H2.92969C2.60609 10.8718 2.34375 11.1342 2.34375 11.4578C2.34375 11.7814 2.60609 12.0437 2.92969 12.0437H8.78906C9.11266 12.0437 9.375 11.7814 9.375 11.4578C9.375 11.1342 9.11266 10.8718 8.78906 10.8718ZM8.78906 13.2156H2.92969C2.60609 13.2156 2.34375 13.4779 2.34375 13.8015C2.34375 14.1251 2.60609 14.3875 2.92969 14.3875H8.78906C9.11266 14.3875 9.375 14.1251 9.375 13.8015C9.375 13.4779 9.11266 13.2156 8.78906 13.2156ZM11.1328 16.8093H7.61719C7.29359 16.8093 7.03125 17.0717 7.03125 17.3953C7.03125 17.7189 7.29359 17.9812 7.61719 17.9812H11.1328C11.4564 17.9812 11.7188 17.7189 11.7188 17.3953C11.7188 17.0717 11.4564 16.8093 11.1328 16.8093Z" fill="#1C437F"/>
</svg>
