<svg width="20" height="21" viewBox="0 0 20 21" fill="none" xmlns="http://www.w3.org/2000/svg">
<path d="M8.30924 4.97251L8.81111 6.36626C9.0865 7.13033 9.52704 7.82424 10.1013 8.39854C10.6756 8.97284 11.3695 9.41338 12.1336 9.68876L13.5274 10.1906C13.5549 10.2007 13.5786 10.219 13.5954 10.2431C13.6122 10.2671 13.6212 10.2957 13.6212 10.325C13.6212 10.3543 13.6122 10.3829 13.5954 10.407C13.5786 10.431 13.5549 10.4493 13.5274 10.4594L12.1336 10.9613C11.3695 11.2366 10.6756 11.6772 10.1013 12.2515C9.52704 12.8258 9.0865 13.5197 8.81111 14.2838L8.30924 15.6775C8.29915 15.705 8.28085 15.7288 8.25682 15.7456C8.23278 15.7624 8.20418 15.7714 8.17486 15.7714C8.14555 15.7714 8.11694 15.7624 8.09291 15.7456C8.06888 15.7288 8.05058 15.705 8.04049 15.6775L7.53861 14.2838C7.26323 13.5197 6.82269 12.8258 6.24839 12.2515C5.6741 11.6772 4.98018 11.2366 4.21611 10.9613L2.82236 10.4594C2.79484 10.4493 2.77108 10.431 2.7543 10.407C2.73752 10.3829 2.72852 10.3543 2.72852 10.325C2.72852 10.2957 2.73752 10.2671 2.7543 10.2431C2.77108 10.219 2.79484 10.2007 2.82236 10.1906L4.21611 9.68876C4.98018 9.41338 5.6741 8.97284 6.24839 8.39854C6.82269 7.82424 7.26323 7.13033 7.53861 6.36626L8.04049 4.97251C8.0503 4.94471 8.0685 4.92064 8.09256 4.90361C8.11663 4.88658 8.14538 4.87744 8.17486 4.87744C8.20435 4.87744 8.2331 4.88658 8.25717 4.90361C8.28123 4.92064 8.29943 4.94471 8.30924 4.97251ZM14.583 1.62314L14.8374 2.32876C14.9769 2.71562 15.2001 3.06695 15.4909 3.35776C15.7817 3.64857 16.133 3.87169 16.5199 4.01126L17.2255 4.26564C17.2395 4.27073 17.2515 4.27999 17.2601 4.29218C17.2686 4.30437 17.2732 4.31888 17.2732 4.33376C17.2732 4.34864 17.2686 4.36315 17.2601 4.37534C17.2515 4.38753 17.2395 4.3968 17.2255 4.40189L16.5199 4.65626C16.133 4.79583 15.7817 5.01895 15.4909 5.30976C15.2001 5.60057 14.9769 5.9519 14.8374 6.33876L14.583 7.04439C14.5779 7.05837 14.5686 7.07044 14.5564 7.07897C14.5443 7.08751 14.5297 7.09208 14.5149 7.09208C14.5 7.09208 14.4855 7.08751 14.4733 7.07897C14.4611 7.07044 14.4518 7.05837 14.4467 7.04439L14.1924 6.33876C14.0528 5.9519 13.8297 5.60057 13.5389 5.30976C13.2481 5.01895 12.8967 4.79583 12.5099 4.65626L11.8042 4.40189C11.7903 4.3968 11.7782 4.38753 11.7697 4.37534C11.7611 4.36315 11.7565 4.34864 11.7565 4.33376C11.7565 4.31888 11.7611 4.30437 11.7697 4.29218C11.7782 4.27999 11.7903 4.27073 11.8042 4.26564L12.5099 4.01126C12.8967 3.87169 13.2481 3.64857 13.5389 3.35776C13.8297 3.06695 14.0528 2.71562 14.1924 2.32876L14.4467 1.62314C14.4518 1.60916 14.4611 1.59708 14.4733 1.58855C14.4855 1.58002 14.5 1.57544 14.5149 1.57544C14.5297 1.57544 14.5443 1.58002 14.5564 1.58855C14.5686 1.59708 14.5779 1.60916 14.583 1.62314ZM14.583 13.6063L14.8374 14.3119C14.9769 14.6987 15.2001 15.0501 15.4909 15.3409C15.7817 15.6317 16.133 15.8548 16.5199 15.9944L17.2255 16.2488C17.2395 16.2539 17.2515 16.2631 17.2601 16.2753C17.2686 16.2875 17.2732 16.302 17.2732 16.3169C17.2732 16.3318 17.2686 16.3463 17.2601 16.3585C17.2515 16.3707 17.2395 16.3799 17.2255 16.385L16.5199 16.6394C16.133 16.779 15.7817 17.0021 15.4909 17.2929C15.2001 17.5837 14.9769 17.935 14.8374 18.3219L14.583 19.0275C14.5779 19.0415 14.5686 19.0536 14.5564 19.0621C14.5443 19.0706 14.5297 19.0752 14.5149 19.0752C14.5 19.0752 14.4855 19.0706 14.4733 19.0621C14.4611 19.0536 14.4518 19.0415 14.4467 19.0275L14.1924 18.3219C14.0528 17.935 13.8297 17.5837 13.5389 17.2929C13.2481 17.0021 12.8967 16.779 12.5099 16.6394L11.8042 16.385C11.7903 16.3799 11.7782 16.3707 11.7697 16.3585C11.7611 16.3463 11.7565 16.3318 11.7565 16.3169C11.7565 16.302 11.7611 16.2875 11.7697 16.2753C11.7782 16.2631 11.7903 16.2539 11.8042 16.2488L12.5099 15.9944C12.8967 15.8548 13.2481 15.6317 13.5389 15.3409C13.8297 15.0501 14.0528 14.6987 14.1924 14.3119L14.4467 13.6063C14.4699 13.5425 14.5605 13.5425 14.583 13.6063Z" fill="#FFCC00"/>
</svg>
