<svg width="100" height="101" viewBox="0 0 100 101" fill="none" xmlns="http://www.w3.org/2000/svg">
<path d="M95.7098 67.9535C85.5898 91.608 58.876 101.768 37.9453 100.036C32.2304 99.5629 20.7319 98.6112 11.7537 90.1209C-5.48825 73.8157 -2.83282 39.7333 13.6727 19.6675C15.7982 17.0835 30.5111 -0.229431 53.4383 0.00230502C70.2243 0.171988 82.0063 9.6542 83.439 10.8355C85.2488 12.3278 89.2405 15.874 92.838 21.4998C101.291 34.7185 102.034 53.1718 95.7098 67.9535Z" fill="url(#paint0_linear_13244_164569)"/>
<path d="M78.7266 47.4354C78.7266 47.4354 79.4563 38.2782 83.917 36.2695C88.3777 34.2608 96.5357 33.5616 98.1952 20.4762C99.1668 12.8155 99.7048 9.47778 99.9839 8.02704C100.093 7.46111 99.6331 6.94757 99.0588 6.99527C94.9963 7.33287 81.7316 9.08075 78.1018 17.6346C73.7987 27.7753 78.7266 47.4354 78.7266 47.4354Z" fill="#91B3FA"/>
<path d="M95.5988 10.3262C90.8204 13.7738 85.0471 20.1534 81.6356 26.7779C81.1717 27.8798 79.9086 30.1946 79.0234 34.4481C78.2592 37.993 78.0616 41.802 78.2777 44.3594C78.2913 44.5211 78.4335 44.641 78.5951 44.6274C78.8731 44.6039 78.8673 44.3069 78.8638 44.3159C78.7643 39.9746 79.5429 34.6645 81.2875 29.9814C83.4915 24.2375 87.6352 18.8765 91.8105 14.3982L92.2379 13.9589C95.4613 10.6005 96.0629 10.6357 95.8234 10.3535C95.7669 10.2869 95.6686 10.2761 95.5988 10.3262Z" fill="#BDD0FB"/>
<path d="M70.1448 64.2983C69.5466 64.5184 76.2814 57.6436 79.3676 46.0697C80.8219 40.6157 81.5536 33.6694 84.9899 31.3195C87.8498 29.3637 96.6498 31.6978 99.5215 32.5359C99.8803 32.6406 99.9556 33.1153 99.646 33.325C98.1202 34.3583 94.8291 36.8277 93.7562 39.549C92.3421 43.1359 88.5868 45.1213 85.377 45.4312C82.1672 45.7411 80.3544 46.1769 78.3016 51.0459C76.2489 55.9149 71.8444 63.6728 70.1448 64.2983Z" fill="#BDD0FB"/>
<path d="M95.243 33.6688C91.4923 33.4381 87.307 34.7261 84.9415 37.7107L84.7179 37.9957C84.2003 38.6648 81.1601 43.487 79.3275 47.5556C79.3047 47.6063 79.3272 47.666 79.378 47.6888C79.4641 47.7276 79.519 47.634 79.5096 47.6418C80.7288 45.3624 82.4384 42.4895 83.7848 40.3481C85.2331 38.0093 86.2409 36.4282 89.1277 35.1129C92.3348 33.7065 95.2467 33.8294 95.2379 33.8303C95.2825 33.8303 95.3188 33.7942 95.3188 33.7496C95.3189 33.7067 95.2853 33.6715 95.243 33.6688Z" fill="url(#paint1_linear_13244_164569)"/>
<path d="M24.9583 6.85375C22.5007 7.06747 20.6164 9.12571 20.6094 11.5926C20.5666 26.6786 20.4961 78.7145 21.4793 97.1322C21.5835 99.0834 23.1831 100.616 25.137 100.637C34.8009 100.741 62.5987 100.932 78.3796 99.923C81.6665 99.7127 84.2243 96.9904 84.2203 93.6968C84.2011 77.8635 83.9482 33.3347 81.7793 12.9811C81.5194 10.5424 79.5591 8.6389 77.114 8.44839C66.5741 7.62717 38.5851 5.66864 24.9583 6.85375Z" fill="url(#paint2_linear_13244_164569)"/>
<path d="M24.4887 15.5453C24.2989 28.4501 23.7586 71.3789 24.7018 87.2232C24.8397 89.539 26.6386 91.3674 28.8599 91.4448C38.0053 91.7635 61.4574 92.3803 74.8208 90.9098C77.2271 90.6451 79.0662 88.5593 79.1303 86.0338C79.4646 72.8645 80.3675 32.8813 79.4508 17.2142C79.3045 14.7148 77.395 12.7205 75.0014 12.5593C65.099 11.892 39.6709 10.3533 28.3071 11.2996C26.1739 11.4772 24.5216 13.3112 24.4887 15.5453Z" fill="url(#paint3_linear_13244_164569)"/>
<path d="M46.5852 9.09815C46.5931 9.45467 46.8774 9.7426 47.2338 9.75342C48.9936 9.80688 53.9508 9.95865 56.1666 10.0385C56.6035 10.0542 56.9373 9.6545 56.8451 9.22714C56.8375 9.21369 56.7808 8.66579 56.2212 8.62687C54.7224 8.52266 50.2005 8.24167 47.2123 8.41406C46.5987 8.44952 46.5654 9.14736 46.5852 9.09815Z" fill="#1F5AA9"/>
<path d="M76.7176 87.4073H26.2973C25.7662 87.4073 25.3357 86.9767 25.3357 86.4457V1.73169C25.3357 1.47859 25.5408 1.27344 25.7939 1.27344H76.9584C77.3564 1.27344 77.6791 1.59611 77.6791 1.99419V86.4457C77.6791 86.9767 77.2486 87.4073 76.7176 87.4073Z" fill="url(#paint4_linear_13244_164569)"/>
<path d="M75.8021 85.8224H27.2126C26.6815 85.8224 26.251 85.3919 26.251 84.8608V3.13266C26.251 2.89438 26.4441 2.70117 26.6825 2.70117H75.8021C76.3332 2.70117 76.7637 3.13169 76.7637 3.66276V84.8608C76.7637 85.3919 76.3331 85.8224 75.8021 85.8224Z" fill="url(#paint5_linear_13244_164569)"/>
<path d="M67.1498 17.0299H36.583C36.465 17.0299 36.3684 16.9333 36.3684 16.8153V9.5095C36.3684 9.39147 36.465 9.29492 36.583 9.29492H67.1498C67.2678 9.29492 67.3644 9.39147 67.3644 9.5095V16.8153C67.3644 16.9334 67.2678 17.0299 67.1498 17.0299Z" fill="white"/>
<path d="M71.3396 54.8285H41.8633C41.7533 54.8285 41.6633 54.7385 41.6633 54.6285V50.7684C41.6633 50.6584 41.7533 50.5684 41.8633 50.5684H71.3396C71.4496 50.5684 71.5396 50.6584 71.5396 50.7684V54.6285C71.5396 54.7385 71.4496 54.8285 71.3396 54.8285Z" fill="white"/>
<path d="M38.7168 56.4374H31.4578C31.3399 56.4374 31.2444 56.3419 31.2444 56.224V49.1763C31.2444 49.0584 31.3399 48.9629 31.4578 48.9629H38.7168C38.8347 48.9629 38.9302 49.0584 38.9302 49.1763V56.224C38.9302 56.3419 38.8347 56.4374 38.7168 56.4374Z" fill="url(#paint6_linear_13244_164569)"/>
<path d="M71.4476 43.9555H41.9712C41.8612 43.9555 41.7712 43.8655 41.7712 43.7555V39.8953C41.7712 39.7853 41.8612 39.6953 41.9712 39.6953H71.4476C71.5576 39.6953 71.6476 39.7853 71.6476 39.8953V43.7555C71.6476 43.8655 71.5576 43.9555 71.4476 43.9555Z" fill="white"/>
<path d="M38.8247 45.5624H31.5657C31.4478 45.5624 31.3523 45.4669 31.3523 45.349V38.3013C31.3523 38.1834 31.4478 38.0879 31.5657 38.0879H38.8247C38.9426 38.0879 39.0381 38.1834 39.0381 38.3013V45.349C39.0381 45.4669 38.9426 45.5624 38.8247 45.5624Z" fill="url(#paint7_linear_13244_164569)"/>
<path d="M71.3396 76.5766H41.8633C41.7533 76.5766 41.6633 76.4866 41.6633 76.3766V72.5164C41.6633 72.4064 41.7533 72.3164 41.8633 72.3164H71.3396C71.4496 72.3164 71.5396 72.4064 71.5396 72.5164V76.3766C71.5396 76.4866 71.4496 76.5766 71.3396 76.5766Z" fill="white"/>
<path d="M38.7168 78.1835H31.4578C31.3399 78.1835 31.2444 78.088 31.2444 77.9701V70.9224C31.2444 70.8045 31.3399 70.709 31.4578 70.709H38.7168C38.8347 70.709 38.9302 70.8045 38.9302 70.9224V77.9701C38.9302 78.088 38.8347 78.1835 38.7168 78.1835Z" fill="url(#paint8_linear_13244_164569)"/>
<path d="M71.4476 65.7035H41.9712C41.8612 65.7035 41.7712 65.6135 41.7712 65.5035V61.6434C41.7712 61.5334 41.8612 61.4434 41.9712 61.4434H71.4476C71.5576 61.4434 71.6476 61.5334 71.6476 61.6434V65.5035C71.6476 65.6136 71.5576 65.7035 71.4476 65.7035Z" fill="white"/>
<path d="M38.8247 67.3105H31.5657C31.4478 67.3105 31.3523 67.2149 31.3523 67.0971V60.0493C31.3523 59.9315 31.4478 59.8359 31.5657 59.8359H38.8247C38.9426 59.8359 39.0381 59.9315 39.0381 60.0493V67.0971C39.0381 67.2149 38.9426 67.3105 38.8247 67.3105Z" fill="url(#paint9_linear_13244_164569)"/>
<path d="M71.4476 33.0824H41.9712C41.8612 33.0824 41.7712 32.9924 41.7712 32.8824V29.0223C41.7712 28.9123 41.8612 28.8223 41.9712 28.8223H71.4476C71.5576 28.8223 71.6476 28.9123 71.6476 29.0223V32.8824C71.6476 32.9924 71.5576 33.0824 71.4476 33.0824Z" fill="white"/>
<path d="M38.8247 34.6894H31.5657C31.4478 34.6894 31.3523 34.5938 31.3523 34.476V27.4282C31.3523 27.3104 31.4478 27.2148 31.5657 27.2148H38.8247C38.9426 27.2148 39.0381 27.3104 39.0381 27.4282V34.476C39.0381 34.5938 38.9426 34.6894 38.8247 34.6894Z" fill="url(#paint10_linear_13244_164569)"/>
<path d="M6.88889 86.664C6.83044 86.6481 6.78346 86.6001 6.77277 86.5377C6.73738 86.3318 6.70576 86.1216 6.67878 85.9131C6.6677 85.8275 6.72939 85.7501 6.81663 85.7402C7.02796 85.7151 6.99091 85.932 7.08667 86.4894C7.10135 86.5745 7.04293 86.6544 6.9562 86.6677C6.93307 86.6713 6.91023 86.6698 6.88889 86.664Z" fill="#91B3FA"/>
<path d="M6.5542 83.9517C6.55481 83.5502 6.57172 83.1438 6.60445 82.7438C6.61151 82.658 6.68823 82.5948 6.77586 82.6027C7.01465 82.6256 6.87447 82.7724 6.87256 83.9558C6.87241 84.042 6.80108 84.111 6.71313 84.1098C6.62402 84.1086 6.55406 84.0368 6.5542 83.9517ZM6.88918 80.8028C6.9731 80.4085 7.07429 80.01 7.18674 79.6326C7.24689 79.4296 7.55043 79.5287 7.49244 79.7232C7.38067 80.0995 7.28308 80.4839 7.20095 80.87C7.18304 80.9542 7.09872 81.0074 7.01267 80.9889C6.92558 80.97 6.87148 80.8862 6.88918 80.8028ZM7.86548 77.7927C8.0284 77.4264 8.20837 77.062 8.40039 76.7094C8.49953 76.5277 8.78015 76.678 8.68166 76.8589C8.49348 77.2043 8.31715 77.5615 8.15754 77.9202C8.07358 78.109 7.7817 77.9809 7.86548 77.7927ZM9.48957 75.266C9.4178 75.2154 9.40075 75.1177 9.45162 75.048C9.68814 74.723 9.94106 74.4031 10.2034 74.0972C10.3383 73.9399 10.5829 74.1425 10.4481 74.2997C10.1911 74.5994 9.94322 74.9128 9.71141 75.2312C9.66069 75.3011 9.56119 75.3166 9.48957 75.266ZM11.5726 72.9063C11.5126 72.8426 11.5162 72.7439 11.5806 72.6858C11.8805 72.4154 12.195 72.1535 12.5153 71.9073C12.6803 71.7811 12.8784 72.0271 12.7135 72.1539C12.3996 72.3952 12.0914 72.6518 11.7976 72.9167C11.7333 72.9747 11.6325 72.9701 11.5726 72.9063ZM14.2002 71.0872C14.1618 71.0768 14.1273 71.0525 14.1051 71.0163C14.0594 70.9422 14.0833 70.8464 14.1585 70.8025C14.5088 70.5978 14.8715 70.4044 15.2364 70.2276C15.3149 70.1895 15.4106 70.2214 15.4503 70.2988C15.49 70.3762 15.4586 70.4697 15.3801 70.5078C15.0225 70.681 14.6671 70.8706 14.3237 71.0712C14.2852 71.0937 14.2406 71.0982 14.2002 71.0872ZM17.0895 69.773C17.0404 69.7596 16.9985 69.7237 16.9802 69.6731C16.9508 69.5916 16.9941 69.5028 17.0769 69.4749C17.4625 69.3448 17.8585 69.2281 18.2537 69.1281C18.3385 69.1065 18.426 69.1568 18.4488 69.2404C18.4717 69.3238 18.4215 69.409 18.3366 69.4304C17.9494 69.5284 17.5614 69.6428 17.1836 69.7702C17.1521 69.7809 17.1195 69.7811 17.0895 69.773ZM20.0811 68.9351C20.0692 68.8495 20.1302 68.7715 20.2173 68.7608C20.6226 68.7112 21.0356 68.6767 21.4449 68.6584C21.6557 68.6495 21.6727 68.9608 21.463 68.9702C21.0621 68.9882 20.6575 69.022 20.2604 69.0706C20.1736 69.0814 20.0931 69.0208 20.0811 68.9351ZM30.5453 71.3421C29.5278 70.7091 29.3158 70.7413 29.427 70.5325C29.4675 70.4564 29.5635 70.4279 29.6416 70.4682C30.0051 70.6571 30.3658 70.8627 30.7136 71.0791C30.8922 71.1901 30.7245 71.4534 30.5453 71.3421ZM23.2781 68.8371C23.2843 68.7512 23.3604 68.6872 23.4481 68.6943C23.856 68.7271 24.2684 68.776 24.6738 68.8397C24.8821 68.8726 24.835 69.1807 24.6269 69.1479C24.2297 69.0855 23.8255 69.0375 23.4258 69.0054C23.3371 68.9982 23.2721 68.9221 23.2781 68.8371ZM27.6981 69.948C26.5755 69.5323 26.3717 69.6057 26.4371 69.3778C26.4785 69.2332 26.6523 69.2691 26.6333 69.2718C27.0288 69.3847 27.4238 69.5141 27.8075 69.656C27.8902 69.6866 27.9325 69.7767 27.9023 69.8573C27.8734 69.9343 27.7859 69.9792 27.6981 69.948Z" fill="#91B3FA"/>
<path d="M32.6287 72.8929C32.228 72.5395 31.9898 72.4296 32.1268 72.267C32.1824 72.2009 32.2827 72.1918 32.3508 72.2475C32.7799 72.5963 32.9914 72.7315 32.8535 72.8823C32.8122 72.9275 32.6944 72.9506 32.6287 72.8929Z" fill="#91B3FA"/>
<path d="M37.95 83.8263C37.8845 83.8085 37.8348 83.7505 37.8319 83.6805C37.8233 83.475 37.8103 83.2675 37.7933 83.0635C37.7861 82.9775 37.8513 82.9029 37.939 82.8968C38.0264 82.8911 38.1034 82.9555 38.1107 83.0416C38.128 83.2498 38.1413 83.4616 38.1501 83.6713C38.1537 83.7575 38.0854 83.8294 37.9976 83.832C37.9812 83.8324 37.9651 83.8304 37.95 83.8263Z" fill="#91B3FA"/>
<path d="M17.8579 98.939C17.4348 98.8115 17.012 98.6649 16.6014 98.5033C16.5194 98.471 16.4789 98.38 16.5109 98.3001C16.601 98.0749 16.71 98.2675 17.9482 98.6407C18.0326 98.6661 18.0807 98.7535 18.0557 98.8359C18.0122 98.9798 17.839 98.9414 17.8579 98.939ZM19.8296 99.2452C19.8672 99.006 20.0227 99.171 21.3038 99.2729C21.3917 99.2795 21.4577 99.3553 21.4516 99.4411C21.4455 99.527 21.3695 99.5911 21.2818 99.5841C20.8434 99.5493 20.3996 99.4956 19.9627 99.4247C19.8751 99.4103 19.8163 99.3297 19.8296 99.2452ZM14.65 97.5794C14.2653 97.3643 13.8847 97.1304 13.5188 96.8841C13.446 96.835 13.4268 96.7378 13.476 96.6668C13.6147 96.467 13.6776 96.6782 14.8052 97.3085C14.882 97.3515 14.9094 97.4468 14.8666 97.5217C14.8237 97.5964 14.7268 97.6221 14.65 97.5794ZM23.3864 99.6053C23.3223 99.5879 23.2733 99.5322 23.2685 99.4636C23.2625 99.3776 23.3288 99.3039 23.4165 99.299C23.8482 99.2752 24.2832 99.233 24.7093 99.1736C24.7964 99.1615 24.8775 99.2209 24.8908 99.3062C24.9043 99.3916 24.8446 99.4706 24.7577 99.4827C24.3227 99.5433 23.8787 99.5864 23.4381 99.6107C23.4202 99.6117 23.4028 99.6098 23.3864 99.6053ZM26.7739 99.0436C26.7221 99.0296 26.6785 98.9902 26.662 98.936C26.637 98.8532 26.6849 98.7668 26.7692 98.7431C27.1828 98.627 27.5965 98.492 27.999 98.3418C28.0809 98.3112 28.1732 98.3518 28.2053 98.4324C28.2374 98.513 28.1971 98.6032 28.1152 98.6337C27.7045 98.787 27.2822 98.9248 26.8601 99.0433C26.831 99.0515 26.8013 99.0511 26.7739 99.0436ZM29.9454 97.7653C29.9052 97.7544 29.8692 97.7282 29.8473 97.6895C29.8044 97.6138 29.8319 97.519 29.9086 97.4778C30.2856 97.2755 30.6583 97.0548 31.0167 96.8219C31.0896 96.7746 31.1884 96.7945 31.2377 96.8665C31.2868 96.9386 31.2676 97.0354 31.1947 97.0827C30.8291 97.3203 30.4487 97.5455 30.064 97.7521C30.0264 97.7722 29.9839 97.7758 29.9454 97.7653ZM32.7494 95.8362C32.7204 95.8284 32.6932 95.8124 32.6717 95.7885C32.6132 95.7236 32.6188 95.625 32.6844 95.5683C33.0066 95.2899 33.3206 94.9943 33.6176 94.6899C33.678 94.628 33.7787 94.6262 33.8426 94.6864C33.9065 94.7463 33.9094 94.8451 33.8489 94.907C33.5457 95.2177 33.2254 95.5194 32.8965 95.8036C32.855 95.8394 32.7995 95.8499 32.7494 95.8362ZM34.9989 93.3242C34.7978 93.1808 35.0133 93.1276 35.6735 92.0459C35.781 91.8696 36.0549 92.0321 35.9472 92.2085C35.722 92.5776 35.4776 92.9417 35.221 93.2905C35.1701 93.3597 35.0708 93.3755 34.9989 93.3242ZM36.711 90.4115C36.4829 90.3149 36.6797 90.2178 37.0796 89.0161C37.1445 88.8213 37.4477 88.9201 37.3825 89.116C37.246 89.5261 37.0902 89.9347 36.9194 90.3306C36.8848 90.4108 36.7899 90.4456 36.711 90.4115ZM37.7106 87.1923C37.6313 87.1708 37.5801 87.0928 37.5951 87.0124C37.6723 86.5945 37.7324 86.17 37.7735 85.7507C37.782 85.665 37.8598 85.603 37.9473 85.6122C38.0351 85.622 38.099 85.6985 38.0906 85.7842C38.0485 86.2121 37.9872 86.6452 37.9083 87.0716C37.8927 87.1563 37.8099 87.2116 37.7234 87.1953C37.719 87.1945 37.7148 87.1935 37.7106 87.1923Z" fill="#91B3FA"/>
<path d="M11.8104 95.5563C11.3974 95.1881 11.193 95.044 11.338 94.8998C11.4887 94.7497 11.6003 94.9493 12.0232 95.3265C12.0886 95.3849 12.094 95.4836 12.0353 95.547C11.9765 95.6105 11.8758 95.6146 11.8104 95.5563Z" fill="#91B3FA"/>
<path d="M13.1636 91.4577L15.3863 90.9633C16.149 91.7037 17.0362 92.3316 18.0254 92.8106C18.3212 94.9712 18.1888 95.1437 18.4281 95.1987L21.1033 95.8136C21.1815 95.8315 21.2622 95.799 21.3041 95.7326L22.5003 93.8392C23.5984 93.8399 24.6692 93.6622 25.6766 93.3286L27.464 94.7447C27.5266 94.7943 27.6141 94.7999 27.6816 94.7586L29.9949 93.3436C30.0625 93.3022 30.0954 93.223 30.0768 93.1465L29.5469 90.9613C30.2933 90.222 30.9234 89.3594 31.4005 88.395L33.6695 88.1688C33.7491 88.1609 33.8142 88.1043 33.8316 88.0279L34.4279 85.4118C34.4453 85.3354 34.4112 85.2559 34.343 85.214L32.3977 84.0192C32.3859 82.9424 32.1921 81.8904 31.8402 80.8987C33.1945 79.1739 33.4061 79.1523 33.2755 78.9493C31.7943 76.7337 31.8468 76.528 31.6034 76.5821L29.3806 77.0764C28.618 76.3359 27.7308 75.7081 26.7417 75.2291C26.446 73.0698 26.5783 72.8961 26.339 72.841C23.6705 72.2757 23.5915 72.1034 23.463 72.307L22.2667 74.2005C21.1686 74.1996 20.0978 74.3774 19.0903 74.711C17.337 73.3795 17.2939 73.1534 17.0854 73.2811C14.821 74.7215 14.633 74.6571 14.6902 74.8932L15.2201 77.0783C14.4737 77.8176 13.8436 78.6802 13.3666 79.6445C11.2049 79.9049 10.9897 79.7728 10.9353 80.0118C10.392 82.6103 10.2136 82.6963 10.424 82.8256L12.3692 84.0204C12.3811 85.0971 12.5748 86.1491 12.9267 87.1409C11.577 88.8598 11.3603 88.8863 11.4914 89.0903C12.9728 91.306 12.9202 91.5118 13.1636 91.4577Z" fill="#91B3FA"/>
<path d="M19.712 84.0637C19.6707 82.6191 20.8356 81.4244 22.3087 81.4007C23.7817 81.3775 25.0138 82.5331 25.0551 83.9778C25.0962 85.4224 23.9314 86.6171 22.4584 86.6408C20.9849 86.6645 19.7532 85.5081 19.712 84.0637ZM22.3221 81.869C21.1264 81.8882 20.155 82.8517 20.1894 84.056C20.2232 85.2425 21.2351 86.1923 22.4449 86.1725C23.6547 86.153 24.6115 85.1719 24.5776 83.9854C24.5437 82.7972 23.5297 81.8493 22.3221 81.869Z" fill="#BDD0FB"/>
<path d="M20.6671 90.4583C20.2854 90.3545 19.913 90.2191 19.557 90.0543C19.4499 90.0048 19.3967 89.888 19.4259 89.7804C19.4294 89.7675 19.4341 89.7548 19.4399 89.7424C19.4951 89.6256 19.6373 89.576 19.7567 89.6312C20.1663 89.8207 20.5993 89.9684 21.0433 90.0708C24.3889 90.8398 27.7176 88.8737 28.5903 85.6647C28.6126 85.5828 28.6332 85.5 28.6523 85.4165C29.4215 82.041 27.2421 78.69 23.8167 77.9017C20.3962 77.1155 16.9766 79.1897 16.2077 82.5561C15.7512 84.56 16.4381 85.8095 16.3817 86.0167C16.3208 86.2406 15.9987 86.246 15.9242 86.0254C15.5174 84.8203 15.454 83.4846 15.8082 82.182C17.3367 76.5617 25.0234 75.4909 28.2134 80.4486C29.1952 81.9743 29.5166 83.7767 29.1183 85.5237C29.0978 85.6141 29.0753 85.7037 29.0512 85.7928C28.6082 87.4227 27.5702 88.802 26.1054 89.6981C24.5605 90.643 22.7258 90.9372 20.9393 90.5266C20.8482 90.5057 20.7573 90.4829 20.6671 90.4583Z" fill="#BDD0FB"/>
<path d="M7.91896 67.7524C8.41215 68.1687 8.97534 68.5093 9.59313 68.753L9.84908 70.1102C9.87742 70.2608 9.99682 70.1807 11.5843 70.4422C11.7308 70.4636 11.6936 70.3364 12.3366 69.1556C12.9984 69.0995 13.6356 68.935 14.2277 68.678L15.369 69.4572C15.4959 69.5437 15.5233 69.4026 16.8308 68.465C16.8696 68.436 16.8859 68.3856 16.8712 68.3395L16.4527 67.0224C16.869 66.5292 17.2096 65.966 17.4533 65.3482C18.7452 65.0766 18.8799 65.1464 18.9018 64.9972C19.1115 63.369 19.2148 63.3083 19.0823 63.2397L17.8558 62.6048C17.7998 61.943 17.6354 61.3057 17.3783 60.7137L18.1575 59.5723C18.2439 59.4458 18.1029 59.4181 17.1652 58.1107C17.0774 57.9924 17.0188 58.1065 15.7227 58.4888C15.2295 58.0725 14.6663 57.7318 14.0485 57.4881L13.7925 56.1309C13.7641 55.9802 13.6448 56.0605 12.0573 55.799C11.9116 55.7776 11.9512 55.8988 11.305 57.0856C10.6432 57.1416 10.006 57.3061 9.41395 57.5632L8.27261 56.784C8.23261 56.7566 8.17966 56.7577 8.14081 56.7866L6.81093 57.7762C6.77208 57.8051 6.75582 57.8555 6.7705 57.9017L7.18901 59.2188C6.77273 59.712 6.43211 60.2751 6.18836 60.8929C4.89647 61.1646 4.76164 61.0948 4.73988 61.244C4.5302 62.8715 4.42681 62.9327 4.55937 63.0014L5.78582 63.6364C5.84183 64.2982 6.0063 64.9354 6.26339 65.5274C5.54193 66.633 5.39656 66.6792 5.48685 66.8006L6.47646 68.1305C6.56484 68.2493 6.62942 68.1328 7.91896 67.7524Z" fill="#91B3FA"/>
<path d="M10.0999 63.2959C10.003 62.3449 10.694 61.4966 11.6453 61.3997C12.5961 61.3027 13.4445 61.9938 13.5415 62.9449C13.6382 63.8938 12.9449 64.7445 11.9961 64.8412C11.0472 64.9378 10.1967 64.2449 10.0999 63.2959ZM10.6127 63.2435C10.6808 63.9097 11.2781 64.3962 11.9437 64.3284C13.0133 64.2192 13.424 62.8609 12.5877 62.1792C11.7551 61.5008 10.503 62.1671 10.6127 63.2435Z" fill="#BDD0FB"/>
<path d="M3.68716 67.1088C3.58479 66.9004 3.48931 66.685 3.4033 66.4684C3.36827 66.3802 3.41133 66.2804 3.49953 66.2453C3.72148 66.1571 3.73188 66.4197 3.99563 66.9574C4.0375 67.0426 4.00229 67.1456 3.9171 67.1874C3.83231 67.2291 3.72918 67.1944 3.68716 67.1088Z" fill="#91B3FA"/>
<path d="M2.83337 64.2441C2.77686 63.7914 2.752 63.3143 2.76697 62.8301C2.77398 62.6024 3.11749 62.6143 3.11051 62.8407C3.07169 64.095 3.31051 64.358 3.02511 64.3934C2.93014 64.4051 2.84507 64.3378 2.83337 64.2441ZM3.24584 60.7749C3.15479 60.748 3.10277 60.6525 3.12954 60.5614C3.26267 60.1099 3.43272 59.6649 3.63517 59.2388C3.73287 59.0337 4.04321 59.1809 3.94565 59.3864C3.75089 59.7962 3.58722 60.2242 3.4593 60.6586C3.41214 60.8184 3.2253 60.7778 3.24584 60.7749ZM4.96159 57.5821C4.93835 57.5757 4.91612 57.5645 4.89648 57.5481C4.82367 57.4872 4.81406 57.3788 4.87493 57.306C5.17739 56.9445 5.51046 56.6041 5.86497 56.2943C5.93637 56.232 6.04516 56.2392 6.10742 56.3106C6.16991 56.382 6.16261 56.4906 6.09117 56.5531C5.75011 56.8512 5.42963 57.1787 5.13865 57.5265C5.09408 57.5796 5.02436 57.5991 4.96159 57.5821ZM7.80321 55.3341C7.75764 55.3217 7.71731 55.2906 7.69454 55.245C7.65205 55.1602 7.68648 55.0569 7.77138 55.0145C8.19265 54.8039 8.63414 54.6251 9.08362 54.4831C9.17424 54.4546 9.27068 54.5048 9.29931 54.5953C9.32784 54.6858 9.27766 54.7823 9.18711 54.8109C8.75487 54.9474 8.33021 55.1193 7.92505 55.3219C7.88577 55.3416 7.84246 55.3447 7.80321 55.3341ZM11.1808 54.2545C11.1757 54.1597 11.2484 54.0787 11.3431 54.0736C11.8151 54.0483 12.2912 54.0598 12.7586 54.108C12.984 54.1301 12.9501 54.4731 12.7233 54.4498C12.2739 54.4035 11.8157 54.3924 11.3616 54.4169C11.2645 54.4217 11.1858 54.3473 11.1808 54.2545Z" fill="#91B3FA"/>
<path d="M15.5033 55.2175C14.9321 54.9507 14.7004 54.9521 14.782 54.7349C14.8154 54.6461 14.9124 54.6001 15.0033 54.6345C15.22 54.7159 15.4372 54.8073 15.6488 54.9061C15.7348 54.9462 15.7719 55.0485 15.7318 55.1345C15.6922 55.2193 15.5912 55.2581 15.5033 55.2175Z" fill="#91B3FA"/>
<path d="M20.1635 60.592C19.9804 59.9862 19.8253 59.8165 20.0417 59.7325C20.1303 59.698 20.2297 59.7419 20.2641 59.8303C20.3481 60.0462 20.425 60.269 20.4925 60.4926C20.5199 60.5834 20.4685 60.6794 20.3777 60.7067C20.2871 60.7343 20.1909 60.683 20.1635 60.592Z" fill="#91B3FA"/>
<path d="M10.2865 71.8766C10.33 71.5945 10.5767 71.8361 11.8182 71.835C12.0449 71.8344 12.0464 72.1785 11.8185 72.1787C11.3543 72.1791 10.8871 72.1434 10.4301 72.0726C10.3378 72.0586 10.2717 71.9716 10.2865 71.8766ZM13.8507 71.774C13.8275 71.682 13.883 71.5886 13.9751 71.5652C15.1887 71.2576 15.3567 70.964 15.4693 71.2275C15.5065 71.3148 15.4659 71.4157 15.3787 71.453C14.9529 71.6346 14.5091 71.7845 14.0595 71.8984C13.9674 71.9217 13.8741 71.866 13.8507 71.774ZM17.0875 70.2817C16.9134 70.0545 17.256 70.0461 18.1164 69.1465C18.2737 68.9825 18.5221 69.2197 18.3649 69.3841C18.0442 69.7193 17.6955 70.032 17.3284 70.3134C17.2532 70.3711 17.1453 70.3571 17.0875 70.2817ZM19.4775 67.6361C19.2278 67.4949 19.541 67.353 19.9801 66.1887C20.0601 65.9762 20.382 66.097 20.3018 66.3099C20.1384 66.743 19.9399 67.1673 19.7117 67.5711C19.6649 67.6538 19.56 67.6826 19.4775 67.6361ZM20.4856 64.0751C20.6216 62.8314 20.4053 62.5696 20.6921 62.5568C20.787 62.5525 20.8672 62.6259 20.8715 62.7208C20.8924 63.1851 20.8775 63.6533 20.8273 64.1125C20.8169 64.2069 20.7321 64.275 20.6377 64.2647C20.5436 64.2543 20.4753 64.1696 20.4856 64.0751Z" fill="#91B3FA"/>
<path d="M8.25054 71.4447C8.03675 71.3527 7.82405 71.2514 7.61835 71.1435C7.53436 71.0993 7.50198 70.9955 7.54608 70.9114C7.6572 70.6999 7.83516 70.892 8.38633 71.129C8.4735 71.1665 8.51379 71.2675 8.47634 71.3547C8.43824 71.4431 8.33608 71.4817 8.25054 71.4447Z" fill="#91B3FA"/>
<path d="M10.3609 67.0886C10.2078 67.0322 10.1531 66.8791 10.2002 66.7532C10.2502 66.6199 10.4 66.5523 10.532 66.6022C10.7795 66.6948 11.0392 66.7616 11.304 66.8004C11.36 66.7979 12.7384 67.0965 14.0812 66.1001C16.7434 64.1189 15.6775 59.8771 12.3905 59.3953C10.4994 59.118 8.72588 60.3134 8.23655 62.1138C7.74351 63.9269 8.76711 64.6555 8.25144 64.8697C8.12003 64.9244 7.9692 64.8622 7.91445 64.7307C7.61929 64.0218 7.5226 63.2435 7.63469 62.4799C7.97442 60.1611 10.1391 58.5441 12.4654 58.8853C14.9686 59.2523 16.6311 61.7337 15.9541 64.2235C15.4082 66.2318 13.4223 67.6324 11.2292 67.3106L11.2291 67.3105C10.9323 67.2669 10.6401 67.1923 10.3609 67.0886Z" fill="#BDD0FB"/>
<defs>
<linearGradient id="paint0_linear_13244_164569" x1="105.973" y1="113.255" x2="32.3232" y2="33.7595" gradientUnits="userSpaceOnUse">
<stop stop-color="#DAE3FE"/>
<stop offset="1" stop-color="#E9EFFD"/>
</linearGradient>
<linearGradient id="paint1_linear_13244_164569" x1="93.5881" y1="35.2819" x2="43.12" y2="66.7461" gradientUnits="userSpaceOnUse">
<stop stop-color="#DAE3FE"/>
<stop offset="1" stop-color="#E9EFFD"/>
</linearGradient>
<linearGradient id="paint2_linear_13244_164569" x1="20.3823" y1="54.1103" x2="83.7554" y2="52.7222" gradientUnits="userSpaceOnUse">
<stop stop-color="#09005D"/>
<stop offset="1" stop-color="#1A0F91"/>
</linearGradient>
<linearGradient id="paint3_linear_13244_164569" x1="84.1676" y1="-0.0663795" x2="7.72884" y2="120.249" gradientUnits="userSpaceOnUse">
<stop stop-color="#4F52FF"/>
<stop offset="1" stop-color="#4042E2"/>
</linearGradient>
<linearGradient id="paint4_linear_13244_164569" x1="27.6957" y1="79.3707" x2="115.328" y2="-50.1909" gradientUnits="userSpaceOnUse">
<stop stop-color="#FE7062"/>
<stop offset="1" stop-color="#FF928E"/>
</linearGradient>
<linearGradient id="paint5_linear_13244_164569" x1="47.3885" y1="94.5569" x2="57.9971" y2="-35.6383" gradientUnits="userSpaceOnUse">
<stop stop-color="#FEBBBA"/>
<stop offset="1" stop-color="#FF928E"/>
</linearGradient>
<linearGradient id="paint6_linear_13244_164569" x1="17.2733" y1="75.0624" x2="61.6536" y2="19.3509" gradientUnits="userSpaceOnUse">
<stop stop-color="#FE7062"/>
<stop offset="1" stop-color="#FF928E"/>
</linearGradient>
<linearGradient id="paint7_linear_13244_164569" x1="17.3812" y1="64.1874" x2="61.7615" y2="8.4759" gradientUnits="userSpaceOnUse">
<stop stop-color="#FE7062"/>
<stop offset="1" stop-color="#FF928E"/>
</linearGradient>
<linearGradient id="paint8_linear_13244_164569" x1="17.2733" y1="96.8085" x2="61.6536" y2="41.097" gradientUnits="userSpaceOnUse">
<stop stop-color="#FE7062"/>
<stop offset="1" stop-color="#FF928E"/>
</linearGradient>
<linearGradient id="paint9_linear_13244_164569" x1="17.3812" y1="85.9354" x2="61.7615" y2="30.2239" gradientUnits="userSpaceOnUse">
<stop stop-color="#FE7062"/>
<stop offset="1" stop-color="#FF928E"/>
</linearGradient>
<linearGradient id="paint10_linear_13244_164569" x1="17.3812" y1="53.3144" x2="61.7616" y2="-2.39714" gradientUnits="userSpaceOnUse">
<stop stop-color="#FE7062"/>
<stop offset="1" stop-color="#FF928E"/>
</linearGradient>
</defs>
</svg>
